<?xml version="1.0" standalone="no"?>
<!DOCTYPE svg PUBLIC "-//W3C//DTD SVG 20010904//EN"
 "http://www.w3.org/TR/2001/REC-SVG-20010904/DTD/svg10.dtd">
<svg version="1.0" xmlns="http://www.w3.org/2000/svg"
 width="3400.000000pt" height="1125.000000pt" viewBox="0 0 3400.000000 1125.000000"
 preserveAspectRatio="xMidYMid meet">

<g transform="translate(0.000000,1125.000000) scale(0.100000,-0.100000)"
fill="#000000" stroke="none">
<path d="M13350 9239 c-131 -7 -257 -22 -394 -48 -28 -5 -56 -17 -63 -27 -46
-62 -123 -335 -148 -518 -8 -61 -22 -136 -30 -166 -20 -76 -58 -311 -95 -588
-22 -168 -36 -243 -50 -270 -11 -20 -20 -56 -20 -79 0 -24 -9 -56 -20 -76 -12
-21 -24 -65 -29 -113 -14 -133 -82 -448 -100 -462 -13 -10 -15 -29 -13 -95 3
-60 -2 -107 -18 -172 -12 -50 -36 -166 -55 -258 -20 -103 -40 -176 -50 -187
-13 -14 -14 -23 -6 -39 16 -28 14 -58 -4 -65 -9 -3 -15 -18 -15 -39 0 -19 -12
-66 -26 -103 -42 -112 -112 -399 -134 -544 -11 -74 -33 -245 -49 -380 -17
-135 -44 -319 -61 -408 -16 -90 -30 -174 -30 -186 0 -12 -5 -27 -10 -32 -6 -6
-16 -42 -24 -80 -19 -94 -23 -101 -62 -114 -46 -16 -49 -25 -17 -54 l27 -25
-22 -93 c-12 -51 -26 -118 -32 -148 -5 -30 -16 -86 -24 -125 -8 -38 -24 -133
-36 -210 -12 -77 -37 -212 -55 -300 -18 -88 -47 -250 -65 -360 -62 -395 -120
-744 -126 -758 -2 -7 3 -24 13 -36 15 -18 34 -24 118 -32 159 -17 643 -14 855
5 263 23 232 7 270 144 18 64 66 265 106 445 52 235 81 342 99 375 22 38 24
50 15 68 -10 17 -6 52 20 175 18 85 34 156 36 158 2 2 93 8 201 12 109 5 308
15 443 24 135 8 351 15 481 15 l235 0 18 -97 c10 -54 71 -309 136 -568 66
-258 128 -517 140 -575 12 -57 27 -108 33 -113 41 -27 66 -30 288 -35 215 -4
712 9 882 24 65 6 67 7 67 34 0 15 -9 47 -20 71 -13 30 -20 66 -20 115 0 48
-13 122 -40 234 -22 90 -47 204 -56 254 -8 50 -23 125 -34 166 -11 41 -26 116
-34 165 -8 50 -49 241 -90 425 -42 184 -81 362 -86 396 -6 34 -24 94 -40 135
-68 164 -110 350 -110 486 0 46 -5 82 -14 96 -22 35 -418 1866 -412 1905 3 23
-2 46 -14 70 -11 20 -20 46 -20 57 0 44 -76 390 -165 755 -51 212 -106 444
-121 515 -15 72 -46 217 -71 323 -24 106 -48 229 -54 275 -6 45 -22 111 -36
147 -18 45 -27 89 -29 143 -2 42 -10 103 -18 135 -8 31 -18 81 -22 110 -4 28
-11 52 -17 52 -6 0 -18 6 -26 14 -17 14 -267 38 -586 56 -187 11 -250 11 -465
-1z m119 -169 c-63 -43 -188 -138 -279 -210 -265 -209 -350 -273 -355 -268 -3
3 4 55 16 116 19 102 23 112 43 112 13 0 100 63 221 159 110 89 210 162 224
164 14 2 75 5 135 6 l109 1 -114 -80z m388 72 l41 -7 -317 -222 c-376 -264
-492 -355 -667 -526 -146 -141 -152 -143 -132 -29 9 54 18 74 47 106 82 87
373 319 697 555 l179 131 55 -1 c30 0 74 -4 97 -7z m331 -13 l82 -11 -222
-150 c-253 -170 -576 -411 -783 -582 -77 -64 -209 -168 -293 -232 -192 -145
-232 -183 -232 -218 0 -15 6 -29 14 -32 9 -4 124 83 303 229 494 402 856 667
1173 861 l125 76 12 -67 c7 -37 15 -73 17 -79 3 -7 -46 -42 -114 -83 -327
-196 -595 -390 -1140 -826 -233 -187 -433 -346 -444 -354 -18 -13 -18 -12 -11
45 4 32 22 133 41 224 19 91 34 179 34 197 0 24 7 37 30 53 17 12 85 73 153
136 145 137 329 277 687 525 146 100 293 209 328 240 64 59 87 69 132 63 14
-2 62 -8 108 -15z m-1018 -7 c0 -5 -30 -33 -67 -63 -37 -30 -96 -78 -131 -107
-35 -30 -65 -52 -67 -50 -8 8 36 192 47 199 7 5 40 10 73 13 52 5 80 8 133 15
6 0 12 -3 12 -7z m1249 -387 l18 -65 -156 -112 c-338 -242 -821 -606 -1393
-1050 -169 -131 -309 -238 -312 -238 -2 0 5 39 15 88 11 48 23 100 26 115 4
22 73 84 297 270 532 442 951 756 1339 1003 148 94 137 95 166 -11z m44 -223
c32 -141 34 -125 -25 -157 -453 -244 -1086 -687 -1725 -1207 -100 -81 -185
-148 -189 -148 -11 0 4 126 20 165 13 30 19 35 38 30 19 -5 62 25 228 158 299
239 602 471 1070 820 228 171 447 333 485 362 39 29 73 51 77 49 3 -2 13 -35
21 -72z m87 -348 c0 -53 -9 -61 -265 -233 -210 -141 -268 -183 -562 -406 -252
-191 -563 -410 -915 -646 -318 -213 -369 -245 -355 -222 4 6 11 49 16 95 4 46
14 97 22 113 18 38 176 170 409 343 102 75 286 213 410 307 405 305 701 509
1021 705 l164 99 27 -57 c16 -33 28 -74 28 -98z m30 -214 c6 -40 12 -76 15
-80 2 -4 -31 -28 -75 -54 -43 -26 -145 -95 -227 -153 -81 -59 -281 -201 -443
-317 -318 -226 -1189 -854 -1359 -979 -57 -43 -105 -76 -107 -75 -3 4 14 115
27 170 10 45 16 50 157 156 81 60 307 217 502 349 329 222 1081 767 1362 989
95 75 123 92 130 81 4 -8 12 -47 18 -87z m59 -215 c12 -30 23 -72 26 -93 l5
-37 -117 -76 c-65 -42 -253 -173 -418 -291 -165 -118 -347 -246 -405 -285 -78
-52 -109 -79 -120 -104 -13 -29 -49 -54 -231 -164 -328 -198 -549 -339 -678
-433 -129 -94 -300 -232 -343 -276 -28 -28 -37 -69 -18 -81 18 -11 76 23 135
81 106 104 273 232 470 360 150 97 628 384 633 380 2 -3 -5 -44 -16 -93 -11
-48 -23 -105 -27 -126 -5 -34 -11 -40 -59 -61 -156 -69 -408 -226 -826 -515
-140 -97 -280 -192 -311 -212 -62 -40 -71 -54 -57 -82 7 -14 16 -17 36 -12 30
7 296 182 497 325 240 172 440 297 624 389 34 18 65 31 67 28 2 -2 -3 -35 -11
-73 -8 -38 -15 -72 -15 -76 0 -3 -64 -47 -142 -96 -79 -50 -246 -161 -373
-247 -436 -297 -785 -528 -791 -522 -10 10 36 233 90 437 31 113 63 247 73
298 l17 94 226 167 c124 92 482 351 795 576 314 224 603 433 643 464 243 186
325 245 449 324 76 48 141 87 145 87 4 0 16 -25 27 -55z m84 -322 c14 -60 22
-110 19 -113 -49 -38 -346 -227 -471 -300 -90 -52 -228 -143 -309 -202 -156
-114 -189 -135 -198 -125 -7 7 -21 64 -33 130 l-8 48 56 51 c31 28 135 103
231 166 96 64 229 157 295 207 183 140 341 242 376 244 13 1 22 -22 42 -106z
m58 -247 c0 -17 4 -40 8 -51 7 -16 -19 -37 -193 -153 -286 -191 -493 -341
-648 -469 -67 -56 -76 -67 -69 -86 16 -43 105 -5 190 82 32 32 198 156 395
294 l341 237 14 -32 c7 -18 16 -60 18 -93 l5 -60 -78 -40 c-148 -75 -429 -251
-654 -407 -123 -87 -226 -156 -228 -154 -1 2 -22 78 -46 169 l-43 166 31 29
c60 57 267 201 533 370 147 94 297 191 333 216 59 42 66 44 78 29 6 -9 12 -31
13 -47z m98 -487 c7 -38 11 -72 10 -74 -2 -2 -64 -40 -137 -84 -244 -147 -453
-303 -661 -493 l-125 -113 -33 95 c-18 52 -33 104 -33 116 0 27 163 149 430
320 183 118 505 304 526 304 6 0 16 -32 23 -71z m-1180 -65 c1 -23 8 -58 16
-77 8 -20 29 -87 46 -149 16 -62 39 -132 49 -155 l19 -42 -27 -21 c-26 -19
-26 -21 -8 -35 10 -8 23 -16 28 -17 5 -2 32 -93 59 -202 49 -193 50 -201 35
-233 -20 -43 -20 -42 7 -52 19 -8 27 -24 45 -103 23 -102 152 -780 152 -801 0
-16 -217 -39 -337 -36 -44 1 -84 -1 -90 -4 -14 -9 -440 -13 -449 -4 -4 4 2 21
14 37 19 25 20 33 10 49 -9 15 -6 40 20 132 17 63 38 161 47 219 10 58 46 222
81 365 35 143 64 268 64 278 0 10 9 35 20 57 14 28 16 40 7 43 -9 3 -7 22 6
78 37 151 87 389 117 564 43 249 40 239 56 190 7 -22 13 -59 13 -81z m1209
-126 c6 -18 13 -46 17 -63 3 -16 8 -37 11 -46 3 -13 -19 -29 -90 -67 -210
-113 -511 -306 -646 -414 -80 -64 -196 -135 -206 -125 -3 2 -7 20 -10 38 -6
34 -4 36 148 160 84 69 207 166 274 216 159 120 466 332 481 333 6 0 16 -15
21 -32z m64 -278 c12 -48 14 -66 5 -69 -7 -2 -55 -26 -107 -53 -141 -73 -348
-216 -590 -408 -118 -93 -218 -170 -221 -170 -4 0 -12 29 -18 65 -7 36 -16 77
-21 91 -9 24 -7 26 48 50 81 36 86 39 181 114 134 105 330 242 464 323 191
116 211 127 227 124 9 -1 21 -27 32 -67z m-1543 -276 l-22 -105 -156 -79
c-226 -115 -811 -459 -1095 -645 l-28 -19 5 30 c3 16 9 53 12 82 5 35 11 52
21 52 20 0 117 61 397 249 136 91 390 262 565 379 364 245 340 241 301 56z
m1593 95 c22 -58 22 -91 -1 -121 -22 -28 -249 -190 -476 -341 -207 -136 -264
-184 -347 -286 -68 -84 -81 -111 -52 -111 32 0 60 21 268 203 72 63 415 309
604 432 51 34 62 26 62 -46 0 -38 -4 -48 -27 -65 -16 -11 -138 -96 -273 -189
-292 -201 -412 -290 -542 -402 -54 -46 -98 -80 -98 -76 0 10 -57 328 -65 359
-4 17 16 37 113 112 64 49 186 144 270 211 244 193 510 374 537 367 6 -1 18
-23 27 -47z m-1642 -337 c0 -15 -6 -47 -14 -72 -15 -51 1 -40 -281 -195 -211
-116 -454 -262 -757 -456 -137 -87 -248 -154 -248 -149 0 4 9 52 20 105 11 53
20 99 20 101 0 2 14 4 30 4 22 0 117 54 348 198 174 109 369 228 432 264 180
104 434 237 442 232 4 -3 8 -17 8 -32z m1734 -113 c9 -28 19 -73 22 -100 6
-47 5 -49 -17 -49 -15 0 -187 -118 -479 -329 l-455 -329 -14 81 -13 82 73 68
c114 105 285 234 541 409 128 87 251 172 273 188 22 16 43 29 47 30 4 0 14
-23 22 -51z m-1795 -169 c-4 -19 -15 -55 -24 -79 -8 -24 -15 -51 -15 -60 0
-10 -35 -34 -97 -66 -143 -73 -435 -241 -777 -447 -165 -99 -316 -190 -335
-201 l-34 -21 7 70 c4 38 9 79 13 91 8 35 549 377 1043 659 231 133 237 134
219 54z m1857 -132 c8 -40 14 -76 14 -79 0 -4 -66 -46 -147 -94 -526 -314
-874 -539 -2212 -1433 -612 -409 -1115 -741 -1117 -739 -2 2 16 114 40 248 25
135 49 274 53 309 7 59 10 65 33 68 30 5 216 123 680 432 412 274 608 397 820
511 l151 82 127 8 c218 14 213 21 56 -80 -141 -90 -298 -196 -524 -356 -130
-91 -831 -569 -1050 -715 -178 -118 -310 -219 -310 -236 0 -21 25 -28 58 -16
16 5 87 52 158 103 71 51 314 215 539 365 226 149 525 353 665 454 318 228
537 373 660 438 93 50 97 51 210 59 l115 8 3 37 c4 42 28 63 282 249 142 104
673 459 678 454 2 -2 10 -37 18 -77z m-1926 -171 c-1 -58 -25 -132 -43 -129
-37 6 -353 -168 -737 -408 -302 -188 -479 -294 -485 -289 -4 4 2 35 26 132 9
34 17 41 92 78 126 64 290 159 547 319 344 214 575 344 592 334 4 -3 8 -20 8
-37z m1971 -48 c4 -18 10 -52 13 -74 l7 -41 -54 -26 c-29 -14 -107 -61 -172
-104 -66 -43 -128 -80 -140 -82 -11 -1 -36 -16 -55 -32 -19 -17 -91 -64 -160
-105 -69 -41 -145 -93 -170 -114 -25 -21 -55 -41 -67 -45 -12 -4 -26 -13 -33
-21 -6 -8 -17 -12 -24 -9 -7 3 -21 -7 -30 -21 -10 -14 -23 -24 -29 -22 -18 6
-62 -19 -85 -48 -11 -14 -22 -25 -26 -25 -3 0 -26 -20 -51 -45 -26 -25 -68
-55 -94 -68 -26 -13 -83 -54 -128 -90 -45 -36 -210 -151 -368 -256 -158 -105
-322 -218 -365 -251 -78 -59 -80 -60 -144 -60 l-65 0 -28 -57 c-21 -44 -34
-59 -52 -61 -27 -4 -310 -187 -383 -248 -26 -21 -80 -57 -120 -78 -40 -22
-108 -68 -151 -103 -44 -34 -83 -61 -88 -58 -4 3 -33 -14 -62 -38 -30 -24 -96
-70 -148 -102 -157 -97 -269 -193 -269 -232 0 -31 29 -18 147 65 175 121 1061
712 1069 712 12 0 -5 -143 -25 -214 -23 -79 -21 -75 -48 -79 -12 -1 -27 -8
-35 -13 -7 -6 -33 -19 -58 -28 -25 -10 -58 -25 -75 -35 -16 -9 -57 -27 -90
-40 -33 -13 -67 -32 -76 -42 -9 -10 -19 -15 -23 -12 -3 3 -28 -15 -55 -40 -28
-26 -58 -47 -69 -47 -10 0 -31 -14 -48 -31 -17 -18 -36 -28 -46 -26 -10 3 -40
-12 -69 -34 -29 -21 -57 -39 -62 -39 -6 0 -8 -3 -4 -6 7 -7 -36 -45 -73 -64
-48 -25 -285 -183 -312 -208 -26 -24 -39 -72 -20 -72 15 0 185 104 417 256
127 83 281 180 342 217 113 67 309 168 349 181 l22 7 -18 -63 c-10 -35 -21
-80 -25 -100 -5 -30 -10 -38 -26 -38 -32 0 -229 -111 -539 -305 -107 -67 -224
-137 -258 -155 -66 -35 -96 -75 -70 -92 19 -11 23 -11 101 21 90 36 152 72
292 171 103 72 210 137 399 240 76 41 79 42 73 19 -3 -13 -29 -130 -58 -260
l-52 -237 -61 -5 c-190 -19 -475 -29 -728 -26 -157 2 -289 7 -293 11 -4 4 13
116 39 250 25 134 55 299 66 367 11 68 22 126 25 129 2 3 11 0 18 -6 16 -14
168 83 822 523 693 466 964 646 1153 766 97 62 326 210 507 329 182 119 396
258 476 308 206 127 512 302 524 299 5 -2 13 -19 16 -38z m-2021 -173 c0 -7
-11 -39 -25 -70 -14 -31 -25 -62 -25 -69 0 -7 -62 -46 -137 -87 -165 -90 -371
-216 -668 -409 -381 -248 -374 -242 -405 -293 -17 -27 -37 -48 -45 -48 -19 0
-20 -4 28 135 l42 119 255 158 c497 308 951 578 972 578 5 0 8 -6 8 -14z
m2094 -108 c9 -46 16 -90 16 -99 0 -16 -160 -126 -370 -254 -146 -89 -294
-192 -307 -214 -7 -10 -26 -22 -44 -26 -17 -4 -54 -29 -82 -56 -28 -27 -54
-49 -59 -49 -4 0 -76 -51 -160 -114 -84 -62 -234 -172 -333 -243 -125 -90
-181 -136 -183 -151 -2 -13 -11 -22 -20 -22 -9 0 -131 -7 -271 -15 -140 -8
-256 -14 -257 -12 -8 7 1348 921 1579 1065 173 108 456 272 467 272 4 0 15
-37 24 -82z m-2147 -168 c5 -18 14 -20 94 -20 49 0 89 -3 89 -7 0 -5 -33 -25
-73 -45 -151 -78 -395 -231 -762 -477 -382 -256 -656 -433 -662 -427 -2 2 3
43 12 91 8 48 15 89 15 90 0 1 20 10 45 20 27 10 56 31 72 52 48 62 411 321
679 484 156 95 455 259 472 259 8 0 16 -9 19 -20z m2193 -77 c1 -27 7 -77 15
-113 21 -94 20 -97 -27 -121 -60 -30 -274 -151 -393 -222 -55 -33 -158 -104
-230 -157 -71 -53 -152 -112 -179 -130 -27 -18 -73 -54 -101 -79 -29 -25 -62
-54 -73 -63 -29 -24 -28 -48 1 -48 41 0 139 57 253 147 223 177 427 311 647
424 76 39 140 69 142 67 11 -12 55 -182 48 -188 -4 -4 -89 -59 -188 -122 -222
-140 -289 -189 -534 -392 -227 -189 -218 -182 -227 -173 -4 4 -13 44 -20 89
-8 45 -18 86 -24 92 -7 7 -108 11 -306 11 -161 0 -294 2 -293 5 1 14 838 615
1079 775 135 90 390 245 403 245 4 0 7 -21 7 -47z m158 -636 c11 -29 22 -73
25 -100 l7 -47 -123 -58 c-215 -103 -472 -270 -736 -481 -63 -50 -117 -89
-119 -86 -7 7 -32 118 -32 145 0 20 11 30 54 53 30 16 81 52 113 81 208 186
755 575 780 554 7 -5 21 -33 31 -61z m60 -279 c35 -97 35 -101 -6 -140 -20
-20 -80 -60 -132 -89 -124 -69 -267 -172 -470 -338 -177 -144 -309 -236 -321
-224 -13 14 -61 225 -52 233 4 4 51 36 103 70 52 35 158 109 235 166 204 148
362 250 493 316 63 32 118 58 123 58 4 0 16 -24 27 -52z m47 -252 c8 -18 22
-66 31 -105 15 -69 15 -73 -3 -87 -10 -8 -110 -69 -222 -136 -125 -76 -254
-163 -335 -228 -216 -172 -357 -280 -366 -280 -4 0 -19 46 -33 103 -30 116
-36 100 64 157 34 19 118 82 187 140 68 58 161 134 206 169 90 71 433 301 447
301 6 0 16 -15 24 -34z m69 -295 c18 -20 42 -120 34 -142 -3 -8 -48 -41 -99
-73 -212 -133 -692 -498 -789 -600 -30 -32 -33 -39 -22 -56 18 -29 15 -35 -8
-15 -25 23 -40 75 -40 143 0 29 -7 69 -15 89 -17 40 -14 63 9 63 38 0 182 87
291 177 66 54 149 121 185 148 87 67 412 285 426 285 6 0 18 -8 28 -19z m56
-260 c5 -11 15 -54 21 -97 6 -42 15 -87 20 -101 8 -21 7 -24 -9 -19 -12 4 -47
-16 -109 -64 -50 -39 -158 -115 -239 -170 -146 -99 -188 -139 -180 -172 3 -14
-10 -17 -98 -23 -56 -4 -145 -3 -199 1 l-97 9 153 121 c302 240 697 532 719
534 4 0 12 -9 18 -19z m75 -346 c3 -27 9 -63 12 -79 l5 -30 -24 29 -25 28 -75
-64 c-41 -35 -111 -89 -154 -121 l-79 -56 -92 -4 c-50 -1 -89 1 -86 5 3 5 64
47 136 94 147 95 299 207 336 247 30 31 37 23 46 -49z m26 -156 c4 -13 7 -43
8 -66 1 -48 3 -47 -132 -57 -63 -5 -67 -4 -57 13 5 10 41 42 80 71 38 28 70
56 70 62 0 19 25 1 31 -23z"/>
<path d="M14144 8926 c-8 -22 3 -33 18 -18 9 9 9 15 0 24 -9 9 -13 7 -18 -6z"/>
<path d="M12545 2439 c-27 -21 -87 -58 -132 -81 -45 -24 -80 -45 -77 -49 2 -4
-14 -14 -36 -23 -41 -16 -51 -32 -26 -42 23 -9 135 23 211 60 39 19 95 57 125
85 47 42 53 52 44 68 -19 31 -55 25 -109 -18z"/>
<path d="M24545 9204 c-136 -19 -164 -26 -179 -49 -9 -13 -24 -26 -35 -30 -16
-5 -20 -19 -25 -98 -4 -51 -11 -539 -15 -1085 l-8 -993 -37 -33 c-41 -38 -40
-63 2 -68 l27 -3 3 -158 c2 -157 2 -159 -23 -189 -31 -37 -32 -56 -1 -64 22
-5 25 -12 32 -82 4 -43 4 -178 0 -302 -3 -124 -9 -364 -12 -535 -4 -170 -11
-318 -16 -328 -7 -13 -4 -29 8 -55 18 -39 17 -134 -6 -389 -12 -124 -11 -142
21 -601 10 -140 10 -192 -1 -272 -13 -96 -11 -189 6 -453 5 -70 3 -104 -6
-121 -8 -16 -9 -29 -2 -42 20 -39 24 -217 8 -414 -8 -107 -17 -308 -20 -446
l-5 -252 29 -6 c27 -5 29 -9 27 -43 l-2 -38 125 -8 c252 -17 1508 -13 1989 5
258 10 459 22 466 28 7 6 23 6 46 0 18 -6 58 -10 87 -10 36 0 54 -4 58 -14 9
-24 30 -25 73 -4 29 14 45 17 54 10 6 -6 83 -12 170 -14 l158 -5 25 31 c20 23
25 37 21 62 -3 20 0 40 10 53 15 22 42 150 43 202 0 18 -6 28 -20 32 -28 7
-25 27 5 27 26 0 34 15 13 23 -10 4 -10 7 0 18 6 7 12 23 12 36 0 20 -5 23
-35 23 -33 0 -35 -2 -35 -32 0 -52 -28 -154 -56 -211 -15 -28 -57 -82 -94
-119 l-68 -68 -48 7 c-106 14 -106 5 -3 133 50 63 115 140 143 171 28 30 70
77 93 103 37 43 45 48 76 44 l34 -4 -2 67 c-2 37 -6 73 -11 80 -9 15 -11 28
-17 175 -3 56 -9 110 -15 120 -5 11 -12 42 -16 69 -4 28 -9 67 -12 88 l-6 37
-61 0 c-34 0 -186 12 -337 26 -266 25 -288 25 -680 17 -517 -10 -926 -10 -937
0 -8 8 -9 677 -3 1212 3 227 1 261 -20 365 -24 123 -26 159 -22 400 2 85 -1
290 -7 455 -6 178 -7 373 -2 480 4 99 5 329 2 510 -4 191 -3 335 2 342 5 7 6
21 3 30 -4 10 -8 271 -9 580 l-2 562 30 31 30 31 -25 19 -25 18 0 389 c1 213
5 411 9 440 12 74 4 77 -224 78 -102 0 -306 3 -455 7 -148 4 -283 5 -300 2z
m145 -79 c0 -8 -271 -315 -300 -340 l-23 -20 6 40 c4 22 7 95 7 163 l0 122 38
0 c20 1 78 9 127 19 94 19 145 25 145 16z m129 -128 c-150 -148 -266 -283
-373 -432 l-71 -100 -3 82 -3 83 132 162 c72 90 163 195 202 235 60 62 69 74
57 87 -11 14 -2 16 90 16 l103 0 -134 -133z m416 114 c17 -7 1 -27 -125 -158
-80 -83 -278 -308 -440 -501 -162 -193 -298 -351 -301 -351 -3 -1 -4 9 -2 22
2 12 1 54 -4 92 -4 39 -7 82 -5 96 3 29 227 322 365 478 82 92 223 228 300
287 15 12 27 27 27 33 0 13 153 14 185 2z m193 -95 l2 -84 -142 -133 c-287
-269 -422 -418 -717 -792 -130 -165 -198 -244 -205 -237 -5 5 -9 51 -8 102 3
107 -4 94 147 274 50 59 168 202 264 317 209 253 414 480 513 570 61 55 79 66
108 67 l36 0 2 -84z m6 -324 l-1 -92 -119 -123 c-158 -161 -280 -302 -571
-657 -132 -162 -272 -331 -310 -375 l-68 -80 -3 142 -3 142 153 179 c84 98
241 282 348 408 107 126 275 310 373 409 206 208 202 207 201 47z m0 -228 c4
-15 4 -80 0 -145 l-7 -118 -134 -133 c-161 -159 -353 -367 -682 -741 -134
-152 -247 -274 -252 -271 -5 3 -9 54 -9 115 0 107 0 109 23 109 18 0 49 32
133 137 192 242 414 514 542 663 135 158 363 408 373 409 4 1 10 -11 13 -25z
m-19 -528 l-7 -141 -42 -35 c-169 -141 -431 -431 -704 -779 -172 -220 -279
-341 -301 -341 -8 0 -11 45 -11 143 l1 142 296 335 c494 560 749 834 765 824
7 -5 8 -54 3 -148z m3 -331 c7 -44 12 -101 12 -127 0 -45 -2 -49 -67 -105
-134 -115 -363 -352 -553 -573 -107 -124 -251 -283 -320 -353 -140 -145 -136
-144 -139 -17 -1 66 14 94 108 200 37 41 167 195 288 341 351 424 637 740 653
722 4 -4 12 -44 18 -88z m-3 -306 c4 -12 4 -76 0 -143 l-7 -121 -85 -70 c-180
-147 -469 -451 -718 -755 -100 -122 -214 -240 -233 -240 -4 0 -7 12 -5 28 2
15 0 59 -4 97 -13 108 -8 120 78 194 77 67 219 218 384 411 262 307 553 620
577 620 4 0 10 -10 13 -21z m11 -395 c4 -14 4 -64 2 -112 l-5 -86 -509 -503
c-280 -277 -522 -513 -537 -524 l-28 -21 7 84 c5 63 12 89 28 110 46 58 528
600 647 728 144 154 356 350 379 350 5 0 13 -12 16 -26z m1 -396 c7 -48 7 -83
0 -101 -6 -18 -60 -71 -151 -146 -245 -204 -427 -389 -785 -796 -68 -77 -127
-141 -132 -143 -5 -2 -9 52 -9 121 l0 125 68 58 c37 32 216 205 397 385 324
320 584 568 596 569 3 0 11 -33 16 -72z m-12 -328 c7 -76 6 -82 -21 -127 -15
-27 -61 -79 -103 -118 -188 -176 -375 -362 -633 -632 -154 -161 -283 -293
-287 -293 -5 0 -11 37 -15 82 -8 94 -10 89 105 218 36 41 131 149 210 240 236
270 705 730 730 715 4 -3 10 -41 14 -85z m5 -344 l0 -95 -192 -167 c-195 -170
-245 -218 -623 -604 -190 -194 -256 -252 -270 -239 -2 3 1 36 7 74 l11 70 236
245 c346 359 801 810 817 810 11 0 14 -20 14 -94z m9 -321 c5 -55 5 -109 1
-120 -10 -24 -64 -75 -185 -176 -119 -99 -395 -369 -564 -552 -122 -134 -309
-312 -317 -304 -5 5 -32 301 -28 308 2 4 15 4 29 1 52 -9 178 102 462 409 100
108 230 241 290 297 148 137 287 252 295 243 4 -3 11 -51 17 -106z m9 -314
c-3 -74 -4 -79 -29 -90 -32 -14 -533 -519 -744 -750 -129 -141 -271 -271 -297
-271 -5 0 -8 55 -8 122 l0 121 21 -18 c19 -18 21 -18 53 -1 18 10 61 50 96 89
140 161 434 467 570 595 157 147 315 282 330 282 6 0 9 -33 8 -79z m-4 -203
c3 -13 6 -40 6 -60 0 -20 4 -48 10 -62 9 -24 -2 -36 -211 -227 -144 -132 -277
-265 -382 -383 -333 -375 -447 -486 -497 -486 -7 0 -9 8 -4 22 3 12 8 54 9 95
l3 73 129 119 c71 65 253 251 405 412 272 291 500 519 517 519 5 0 11 -10 15
-22z m32 -269 c3 -6 8 -53 10 -105 2 -52 5 -98 7 -103 1 -4 -36 -41 -83 -81
-137 -117 -420 -402 -728 -733 l-287 -308 -17 113 c-10 62 -17 136 -16 163 l3
50 41 1 c54 2 104 37 215 151 115 119 299 319 387 423 69 81 439 440 454 440
4 0 10 -5 14 -11z m18 -447 c0 -71 -5 -126 -12 -139 -7 -12 -56 -60 -110 -106
-100 -87 -225 -214 -603 -607 -200 -209 -342 -340 -366 -340 -17 0 -27 144
-12 172 6 13 48 61 93 108 45 47 182 197 306 335 261 289 476 508 608 618 51
42 94 77 95 77 1 0 2 -53 1 -118z m-19 -420 c-8 -43 -47 -85 -179 -197 -264
-221 -519 -506 -723 -811 -23 -33 -60 -72 -82 -87 -23 -15 -58 -52 -78 -83
-21 -31 -39 -51 -41 -45 -2 6 1 82 7 169 10 145 13 159 35 177 12 11 62 53
110 94 48 41 243 234 434 429 191 195 385 389 432 430 l85 74 3 -58 c2 -33 0
-74 -3 -92z m3 -258 c-3 -82 -5 -89 -24 -92 -29 -4 -429 -410 -569 -577 -61
-72 -166 -204 -235 -292 -70 -90 -132 -162 -141 -163 -11 0 -39 -38 -74 -100
-31 -55 -61 -97 -67 -94 -5 3 -8 38 -7 78 2 39 0 77 -4 83 -11 18 123 203 147
203 15 1 48 39 119 138 184 260 391 506 583 692 135 131 256 232 267 221 4 -4
7 -48 5 -97z m22 -400 c7 -10 20 -24 28 -31 11 -9 -29 -53 -204 -225 -173
-170 -492 -501 -718 -746 -26 -28 -29 -35 -18 -52 6 -11 8 -22 3 -25 -5 -3
-61 -2 -125 1 l-116 7 0 49 0 48 34 0 c30 0 42 9 89 63 29 34 96 118 147 187
205 272 498 601 725 814 l130 121 5 -96 c3 -62 10 -103 20 -115z m1084 -111
c-72 -102 -484 -667 -609 -836 l-110 -148 -560 6 c-308 3 -584 9 -613 13 l-54
7 213 235 c344 380 505 539 729 719 71 58 77 61 124 59 30 -2 51 -8 54 -16 2
-7 -17 -32 -43 -55 -51 -45 -425 -455 -590 -648 -114 -132 -187 -236 -183
-259 2 -9 16 -16 35 -18 34 -3 40 3 152 153 119 161 450 532 668 748 l99 98
69 -3 69 -3 -94 -100 c-176 -186 -362 -399 -444 -510 -171 -229 -186 -251
-186 -271 0 -24 24 -38 49 -29 9 4 63 70 121 148 107 145 280 357 318 391 l21
19 -6 -52 c-6 -53 7 -69 27 -32 14 27 13 31 -7 32 -16 0 -16 1 1 8 14 5 16 10
8 15 -24 14 -12 28 18 21 34 -7 42 13 15 35 -8 7 -15 17 -15 22 0 6 66 77 147
159 l147 149 99 0 99 0 -82 -87 c-165 -176 -395 -477 -585 -766 -70 -106 -76
-121 -67 -143 7 -13 20 -24 31 -24 21 0 82 63 107 112 78 152 407 592 585 782
112 121 138 136 221 136 l70 0 -48 -67z m406 56 c0 -6 -10 -25 -22 -42 -35
-48 -334 -357 -373 -385 -19 -14 -35 -33 -35 -42 0 -9 -27 -48 -60 -86 -154
-177 -213 -250 -260 -319 -42 -63 -49 -78 -40 -95 17 -32 46 -23 89 28 402
479 439 522 655 760 67 74 120 137 119 140 -1 4 -4 14 -7 22 -6 13 21 14 221
7 126 -4 231 -11 234 -15 4 -4 9 -42 12 -85 l6 -78 -180 -202 c-99 -111 -204
-233 -233 -272 -156 -207 -226 -307 -226 -325 0 -19 -7 -20 -136 -20 -105 0
-134 3 -128 13 16 26 173 228 263 337 96 116 345 372 456 469 l60 52 -29 24
-30 24 -40 -32 c-215 -170 -509 -488 -741 -800 -47 -64 -82 -102 -86 -95 -7
11 -367 4 -453 -9 -32 -5 -38 -3 -34 8 11 28 312 446 531 737 l220 292 124 0
c82 0 123 -4 123 -11z m570 -385 l12 -96 -69 -71 c-88 -92 -198 -224 -293
-354 l-75 -103 -83 0 c-64 0 -81 3 -76 13 54 92 263 365 406 529 64 74 160
178 164 178 1 0 7 -43 14 -96z m-3216 -198 c-7 -17 -34 -22 -34 -6 0 6 7 10
15 10 8 0 15 5 15 12 0 6 2 9 5 6 3 -3 3 -13 -1 -22z m3172 -445 c-8 -13 -36
-15 -36 -3 0 4 5 13 12 20 14 14 34 0 24 -17z m-1456 -50 c0 -19 -22 -23 -38
-7 -15 15 -14 16 11 16 15 0 27 -4 27 -9z"/>
<path d="M25800 2990 c0 -5 5 -10 11 -10 5 0 7 5 4 10 -3 6 -8 10 -11 10 -2 0
-4 -4 -4 -10z"/>
<path d="M25780 2965 c0 -16 16 -20 24 -6 3 5 -1 11 -9 15 -9 3 -15 0 -15 -9z"/>
<path d="M2440 9180 c-80 -4 -191 -11 -247 -15 l-103 -7 -11 -40 c-23 -88 -26
-160 -21 -613 8 -696 7 -761 -8 -1625 -7 -437 -15 -1409 -16 -2158 -2 -750 -4
-1366 -6 -1368 -3 -2 1 -36 8 -76 12 -68 7 -218 -11 -308 -5 -22 -16 -381 -19
-600 0 -47 2 -119 6 -160 l6 -74 67 -23 c338 -114 800 -133 1103 -47 l52 15 0
45 c0 24 4 44 9 44 26 0 29 109 30 1025 1 878 13 1599 27 1683 4 29 9 33 27
28 76 -19 210 -26 283 -16 44 6 88 12 98 13 15 2 21 -8 30 -53 6 -30 26 -89
44 -130 43 -102 123 -321 187 -515 29 -88 69 -201 88 -251 35 -88 74 -220 172
-579 46 -169 373 -1164 400 -1215 13 -25 25 -29 217 -68 112 -23 244 -47 293
-53 192 -25 503 -12 629 26 l71 22 8 44 c7 41 -3 76 -148 489 -232 658 -394
1126 -515 1485 -59 176 -124 356 -143 401 -44 102 -115 320 -161 494 -33 122
-35 136 -20 145 79 48 122 83 206 162 54 51 121 111 149 133 56 44 225 230
257 282 11 18 23 44 27 58 4 14 16 34 26 45 10 11 28 43 40 70 12 28 32 65 46
83 15 19 22 40 18 51 -3 10 3 38 14 62 11 24 29 82 41 129 12 47 30 99 41 116
13 22 18 47 17 80 -1 27 3 83 10 125 18 119 34 426 26 514 -4 44 -8 215 -8
380 l-2 300 -27 68 c-15 37 -32 100 -37 138 -7 48 -18 81 -34 102 -29 38 -58
103 -97 215 -37 109 -58 146 -160 278 -145 189 -376 400 -425 388 -15 -4 -51
8 -106 35 -51 26 -131 53 -208 72 -69 17 -162 42 -208 56 -69 20 -89 23 -114
14 -20 -7 -34 -8 -38 -2 -15 26 -362 66 -695 81 -244 11 -960 11 -1185 0z
m691 -109 l30 -18 -68 -50 c-177 -129 -917 -641 -940 -650 -10 -4 -13 20 -13
111 0 99 2 116 16 116 9 0 53 26 97 58 102 73 149 103 417 265 118 72 238 145
265 164 47 32 54 34 108 28 32 -3 72 -14 88 -24z m-331 5 c-19 -17 -634 -414
-655 -422 -13 -5 -15 5 -15 64 0 68 1 71 36 102 20 17 66 51 103 74 36 24 113
74 171 112 115 75 130 80 285 82 76 2 87 0 75 -12z m-385 -12 c-52 -39 -277
-176 -281 -171 -3 3 -6 37 -7 77 -3 105 6 110 177 110 119 -1 129 -2 111 -16z
m1055 -21 c7 -6 -51 -51 -85 -64 -16 -7 -55 -35 -85 -61 -30 -27 -138 -105
-240 -172 -102 -68 -234 -165 -295 -216 -60 -51 -135 -112 -165 -135 -66 -50
-448 -315 -455 -315 -3 0 -5 48 -5 106 0 96 2 105 18 100 12 -4 190 114 577
383 l560 389 85 -5 c47 -3 87 -8 90 -10z m390 3 c0 -7 -333 -273 -535 -427
-191 -146 -1147 -857 -1172 -872 -10 -6 -13 16 -13 116 0 119 1 124 23 134 12
6 87 59 167 120 80 60 195 143 255 185 61 42 160 120 220 173 63 56 184 146
285 213 96 63 193 129 216 147 22 18 101 74 175 124 l134 91 123 0 c67 0 122
-2 122 -4z m335 -17 c44 -6 84 -15 88 -19 16 -14 -111 -114 -337 -265 -189
-127 -310 -216 -471 -345 -66 -53 -172 -134 -235 -180 -63 -46 -332 -249 -598
-452 -266 -204 -486 -368 -488 -365 -3 3 -8 54 -11 115 l-6 109 174 135 c96
74 347 264 559 423 558 418 1060 814 1086 857 7 11 93 7 239 -13z m289 -70
c38 -5 72 -12 75 -15 9 -9 -46 -49 -454 -333 -542 -376 -1061 -770 -1418
-1077 -76 -66 -157 -132 -180 -149 -23 -16 -89 -66 -147 -111 -107 -82 -187
-134 -208 -134 -8 0 -12 28 -12 90 0 71 3 90 14 90 8 0 80 52 160 115 149 118
389 297 806 603 129 94 305 226 390 292 301 233 436 334 555 413 98 64 124 78
147 73 21 -4 28 -2 28 9 0 8 -5 15 -12 15 -17 0 20 37 91 92 41 31 71 46 80
42 9 -3 47 -10 85 -15z m273 -50 c92 -31 92 -30 26 -88 -32 -29 -148 -112
-258 -185 -110 -74 -292 -203 -405 -287 -113 -84 -263 -195 -334 -246 l-130
-93 -112 0 c-62 0 -115 4 -118 8 -8 13 360 281 914 666 157 109 289 202 293
206 5 4 4 18 -3 30 -12 22 -11 22 31 15 24 -4 67 -16 96 -26z m276 -126 c32
-19 55 -39 50 -42 -4 -4 -55 -41 -113 -81 -58 -40 -224 -164 -370 -274 -146
-110 -323 -242 -394 -293 l-129 -93 -106 6 c-180 12 -182 1 28 158 100 75 305
224 454 330 150 106 317 224 372 264 114 81 116 81 208 25z m186 -139 c28 -30
51 -59 51 -63 0 -5 -71 -55 -157 -112 -206 -136 -412 -283 -597 -428 -82 -64
-152 -115 -155 -114 -3 2 -35 13 -71 24 -36 12 -74 25 -85 29 -16 5 2 23 100
101 264 209 827 616 856 618 4 1 30 -24 58 -55z m181 -303 c-18 -15 -175 -124
-349 -245 -174 -120 -356 -248 -405 -283 l-90 -65 -30 38 c-17 22 -46 53 -64
71 l-34 31 59 46 c97 77 315 234 583 420 l253 176 55 -82 55 -82 -33 -25z m78
-83 c30 -51 65 -146 57 -157 -15 -25 -896 -641 -916 -641 -2 0 -4 26 -4 58 -1
31 -7 78 -14 104 -11 40 -11 50 0 64 26 31 253 195 518 374 146 99 280 191
296 204 17 14 33 25 37 26 3 0 15 -15 26 -32z m127 -278 c14 -27 32 -77 39
-111 l15 -60 -512 -340 -512 -340 -7 53 c-3 29 -6 76 -7 103 -1 47 2 54 42 92
23 23 89 72 147 110 58 37 193 134 300 215 212 158 451 328 462 328 4 0 19
-22 33 -50z m-1514 -81 c224 -38 334 -91 381 -184 44 -84 50 -130 60 -455 17
-510 18 -485 -27 -534 -21 -23 -23 -30 -14 -49 30 -56 0 -236 -52 -309 -68
-95 -471 -192 -699 -168 -46 5 -92 4 -120 -2 -70 -17 -289 -15 -300 1 -17 29
-23 296 -12 606 5 176 8 499 5 718 l-6 397 330 0 c289 0 346 -3 454 -21z
m-867 -54 c3 -9 3 -56 -1 -106 l-6 -90 -46 -38 c-196 -161 -1017 -791 -1032
-791 -4 0 -10 35 -14 79 -5 61 -3 85 8 108 17 32 92 94 209 170 42 28 172 129
290 225 300 246 568 458 578 458 4 0 11 -7 14 -15z m2475 -262 l1 -62 -52 -40
c-29 -22 -136 -92 -238 -156 -102 -64 -261 -170 -355 -234 -253 -175 -255
-176 -342 -220 -94 -47 -107 -50 -97 -19 3 12 7 59 8 105 l2 84 79 39 c44 22
175 108 290 191 247 178 466 325 588 393 48 27 91 54 95 60 9 14 20 -61 21
-141z m-2481 -159 c-1 -97 -4 -124 -15 -124 -8 0 -49 -28 -91 -63 -42 -34
-140 -108 -217 -163 -77 -56 -165 -124 -195 -150 -91 -80 -177 -145 -335 -254
-82 -57 -166 -116 -186 -131 l-36 -29 -6 53 c-4 29 -4 75 -1 103 5 41 12 56
38 76 17 13 166 127 331 253 312 238 551 428 645 513 30 27 58 48 62 45 5 -2
7 -60 6 -129z m2483 -105 l3 -63 -130 -81 c-211 -133 -494 -318 -741 -487
-128 -87 -237 -158 -243 -158 -6 0 -9 8 -6 18 2 9 10 49 17 89 12 72 12 72 68
111 31 22 79 51 106 64 28 13 93 55 145 93 52 38 246 170 430 293 373 250 346
240 351 121z m-2475 -144 c7 -27 -11 -144 -23 -155 -178 -156 -1060 -840
-1068 -827 -1 1 1 53 3 115 3 93 7 115 21 120 9 3 43 28 75 55 33 27 143 105
245 172 106 70 251 178 336 250 83 70 198 161 257 202 59 41 110 78 113 84 12
18 35 9 41 -16z m2484 -133 l0 -98 -32 -18 c-86 -50 -245 -159 -406 -281 -258
-193 -1357 -904 -1682 -1088 -305 -172 -281 -157 -470 -302 -80 -62 -183 -136
-230 -165 -184 -115 -763 -461 -766 -457 -9 8 -4 385 5 414 5 17 7 49 4 70
l-5 38 94 69 c148 109 489 332 937 612 l415 259 190 6 c105 3 192 5 193 5 1
-1 -38 -26 -85 -56 -48 -30 -275 -177 -505 -328 -230 -150 -511 -329 -626
-398 -284 -170 -582 -372 -601 -407 -14 -26 -14 -29 4 -42 24 -18 41 -9 199
108 143 107 179 129 490 309 172 99 346 210 520 332 144 101 359 242 477 312
118 70 240 144 270 164 30 20 80 45 110 55 144 46 267 133 308 219 15 31 28
41 68 55 28 9 136 78 249 158 370 260 849 568 867 557 4 -3 8 -49 8 -102z
m-2500 -285 l0 -143 -112 -71 c-62 -39 -212 -139 -333 -222 -538 -367 -637
-433 -642 -428 -9 9 -16 133 -9 160 4 18 107 101 378 305 205 154 447 339 538
411 91 71 168 130 173 130 4 1 7 -63 7 -142z m2483 -8 c-8 -111 -12 -117 -151
-201 -48 -28 -316 -205 -597 -393 -492 -331 -622 -413 -1195 -758 -352 -212
-649 -398 -1025 -640 -473 -305 -587 -378 -590 -375 -1 2 -5 40 -8 84 l-5 82
127 75 c69 41 178 103 241 137 283 154 323 179 620 395 264 192 292 210 508
331 220 125 331 193 624 386 207 135 1154 772 1358 911 52 36 96 64 97 63 2
-2 0 -45 -4 -97z m-29 -236 c3 -10 0 -40 -7 -67 l-13 -49 -134 -81 c-153 -92
-184 -113 -477 -318 -294 -206 -425 -287 -668 -418 -351 -188 -505 -287 -736
-470 -54 -44 -119 -91 -144 -106 -46 -26 -47 -26 -121 -13 -40 7 -74 18 -74
24 0 15 183 130 665 421 524 315 729 441 845 521 52 36 260 175 462 309 202
134 370 249 373 254 10 15 23 12 29 -7z m-2454 -113 l0 -121 -272 -179 c-150
-98 -320 -212 -377 -252 -173 -121 -434 -298 -436 -295 -1 1 -5 52 -9 113 l-6
110 177 130 c233 171 462 328 648 446 152 96 268 167 273 168 1 0 2 -54 2
-120z m2389 -167 c-8 -53 -36 -137 -64 -195 -16 -33 -51 -57 -274 -191 -141
-85 -303 -178 -361 -207 -58 -29 -168 -89 -245 -133 -278 -159 -671 -391 -728
-429 -100 -68 -153 -88 -234 -88 -95 0 -106 18 -33 55 19 10 89 57 155 104
156 112 379 255 580 371 232 134 1154 716 1190 751 18 18 22 8 14 -38z m-2357
-95 l13 -43 79 -3 79 -3 -34 -23 c-19 -13 -167 -106 -329 -208 -260 -163 -708
-457 -858 -564 -29 -20 -55 -35 -57 -32 -3 3 -8 41 -12 85 l-6 80 94 76 c80
64 312 230 624 446 133 92 359 231 377 231 10 0 21 -15 30 -42z m2189 -321
c-12 -24 -50 -76 -86 -115 -35 -40 -95 -108 -131 -153 -68 -81 -97 -102 -201
-140 -64 -24 -400 -209 -643 -354 -85 -51 -236 -139 -335 -194 l-180 -102 -17
38 c-9 21 -19 58 -22 83 l-6 45 152 86 c84 47 284 166 443 265 166 103 388
231 519 298 222 114 425 230 490 281 38 30 44 18 17 -38z m-571 -585 c0 -15
-34 -40 -62 -47 -37 -10 -44 -55 -18 -136 11 -35 20 -67 20 -70 0 -9 -130 -93
-504 -324 -229 -141 -322 -193 -330 -185 -13 13 -76 202 -70 212 8 12 259 160
519 305 138 77 291 165 340 196 93 57 105 63 105 49z m-1642 -357 l-2 -95
-115 -72 c-64 -39 -306 -197 -538 -350 -232 -153 -424 -278 -427 -278 -3 0 -6
45 -6 99 l0 99 73 55 c119 89 297 205 572 371 143 87 296 182 340 211 44 30
86 54 93 54 9 1 12 -23 10 -94z m1632 -63 c11 -37 23 -75 26 -84 7 -22 -108
-98 -400 -263 -115 -65 -252 -146 -304 -181 -68 -46 -99 -61 -107 -54 -7 6
-20 32 -30 58 -10 26 -24 58 -32 70 -8 13 -13 25 -11 27 16 15 250 159 451
279 136 81 275 165 309 186 33 22 64 37 69 34 5 -2 18 -35 29 -72z m-1635
-175 c5 -26 -11 -198 -18 -203 -24 -18 -1045 -678 -1053 -681 -19 -7 -33 149
-18 204 9 33 1034 713 1076 713 4 0 10 -15 13 -33z m1735 -109 c18 -57 35
-108 37 -114 2 -6 -22 -26 -54 -44 -32 -18 -103 -63 -158 -100 -55 -37 -143
-91 -195 -120 -52 -30 -147 -86 -210 -125 -135 -85 -200 -119 -208 -110 -4 3
-23 53 -43 111 l-37 106 111 72 c108 71 705 424 718 425 4 1 21 -45 39 -101z
m-1746 -203 c4 -14 3 -67 0 -118 l-7 -92 -531 -343 -531 -343 -3 108 c-2 79 1
109 10 114 7 4 245 163 528 353 283 190 518 345 521 345 4 1 10 -10 13 -24z
m1828 -22 c17 -31 52 -133 47 -137 -2 -1 -42 -24 -89 -51 -47 -26 -193 -121
-325 -209 -214 -143 -360 -234 -405 -251 -11 -4 -21 11 -37 57 -12 35 -25 70
-28 80 -8 20 135 117 425 291 107 64 238 145 290 181 52 36 97 66 100 66 3 0
13 -12 22 -27z m107 -314 c18 -55 31 -102 29 -104 -1 -1 -36 -24 -77 -50 -41
-26 -185 -126 -320 -223 -135 -97 -286 -202 -336 -234 l-90 -58 -27 87 c-15
49 -30 102 -34 119 l-6 31 308 204 c276 183 500 326 514 328 3 1 21 -44 39
-100z m-1949 -57 c0 -42 -3 -101 -6 -129 l-7 -53 -216 -138 c-315 -203 -721
-454 -809 -501 -17 -9 -18 -2 -17 113 l0 123 520 335 c286 184 523 333 528
331 4 -2 7 -39 7 -81z m2029 -169 c15 -32 51 -139 51 -156 0 -3 -12 -8 -27
-12 -15 -3 -97 -50 -182 -104 -162 -102 -439 -266 -574 -340 l-77 -43 -19 44
c-11 24 -21 51 -23 62 -2 14 86 80 402 301 223 156 411 284 417 284 7 1 21
-16 32 -36z m-2045 -139 c3 -9 6 -56 6 -105 l0 -90 -187 -122 c-322 -209 -726
-478 -783 -521 -30 -23 -60 -45 -66 -49 -8 -5 -15 19 -24 74 -22 155 10 208
184 299 44 24 173 104 284 178 112 73 274 174 360 224 87 50 168 99 182 109
31 23 36 23 44 3z m2137 -140 c11 -25 23 -60 26 -79 5 -32 4 -34 -98 -103 -57
-38 -191 -130 -297 -205 -180 -127 -429 -284 -436 -276 -4 5 -66 203 -66 212
0 3 42 28 94 56 101 54 705 416 721 432 19 19 37 8 56 -37z m-2131 -190 c6
-14 10 -61 10 -104 l0 -79 -77 -52 c-43 -29 -170 -116 -283 -194 -113 -78
-262 -178 -331 -223 -115 -73 -342 -203 -379 -217 -13 -4 -15 10 -18 84 -2 88
-2 90 29 126 18 20 68 59 113 88 44 29 189 124 321 211 339 226 588 386 597
386 5 0 13 -12 18 -26z m2224 -74 c23 -66 26 -83 16 -95 -16 -19 -269 -190
-412 -278 -143 -89 -417 -247 -427 -247 -11 0 -51 93 -51 117 1 12 128 105
417 301 229 155 419 282 423 282 4 0 19 -36 34 -80z m86 -253 l29 -67 -66 -55
c-81 -66 -212 -154 -403 -270 -80 -48 -196 -121 -257 -162 -62 -41 -117 -72
-123 -68 -5 3 -17 32 -26 63 -9 31 -22 64 -28 74 -5 9 -8 19 -6 21 13 13 290
188 466 296 110 68 236 149 280 181 43 32 85 58 92 57 8 -1 27 -32 42 -70z
m-2292 -45 c7 -104 -1 -132 -56 -186 -33 -33 -88 -68 -187 -117 -148 -75 -307
-176 -520 -333 -71 -52 -144 -103 -162 -113 -32 -17 -33 -17 -95 12 -35 17
-66 35 -70 40 -4 6 -8 29 -8 52 0 42 1 43 61 73 152 77 375 220 839 538 98 67
179 117 184 112 5 -5 11 -40 14 -78z m2366 -164 c39 -89 40 -104 9 -137 -16
-17 -66 -51 -112 -77 -139 -76 -340 -203 -448 -285 l-101 -76 -79 13 c-83 14
-119 29 -127 50 -6 16 43 52 259 189 344 217 397 251 483 312 48 35 88 63 90
63 2 0 13 -24 26 -52z m-2374 -193 c0 -100 -6 -122 -34 -129 -60 -15 -436
-267 -436 -292 0 -7 5 -16 10 -19 6 -4 8 -11 4 -16 -3 -5 -9 -7 -14 -4 -5 3
-75 10 -156 16 -201 14 -202 15 -128 73 159 126 734 482 746 462 4 -6 8 -47 8
-91z m2468 -66 c7 -28 12 -59 12 -69 0 -27 -105 -118 -214 -185 -54 -33 -116
-75 -138 -94 l-40 -34 -91 6 c-51 4 -112 12 -136 19 l-45 13 70 52 c141 104
531 343 559 343 6 0 17 -23 23 -51z m-2484 -155 c3 -9 6 -55 6 -104 l0 -89
-52 -10 c-164 -32 -339 -50 -323 -32 15 15 349 251 356 251 4 0 10 -7 13 -16z
m2579 -119 l25 -74 -26 -5 c-82 -16 -158 -26 -252 -31 l-105 -6 25 21 c14 12
77 53 141 90 63 38 121 76 129 84 19 24 35 5 63 -79z"/>
<path d="M4180 8550 c0 -5 7 -10 15 -10 8 0 15 5 15 10 0 6 -7 10 -15 10 -8 0
-15 -4 -15 -10z"/>
<path d="M7600 9169 c-52 -13 -334 -29 -512 -29 -146 0 -158 -1 -158 -18 0
-10 -12 -29 -26 -43 l-26 -24 6 -985 c4 -542 7 -1003 7 -1025 4 -171 -12 -859
-20 -895 -14 -60 -14 -236 0 -262 16 -30 17 -510 1 -516 -16 -5 -15 -22 2 -41
29 -35 35 -77 23 -171 -6 -49 -14 -90 -19 -90 -4 0 -12 -9 -17 -19 -8 -14 -6
-25 10 -46 21 -26 21 -31 14 -313 -4 -158 -11 -292 -16 -298 -6 -7 -6 -31 0
-60 5 -27 12 -240 16 -474 3 -234 12 -679 20 -990 8 -311 15 -611 15 -666 l0
-101 41 -28 42 -27 571 5 c468 4 641 9 961 30 624 42 848 49 1135 38 140 -6
401 -13 580 -17 179 -4 327 -10 330 -15 9 -13 54 -20 69 -10 21 13 70 419 78
636 6 177 6 181 32 211 38 43 57 92 44 113 -14 22 -47 25 -63 5 -12 -14 -17 3
-35 127 l-20 143 -32 7 c-19 4 -34 2 -36 -4 -2 -6 -61 -12 -153 -13 -82 -2
-207 -8 -279 -14 -94 -8 -208 -8 -415 0 -159 7 -380 9 -500 5 -131 -4 -296 -2
-420 5 -113 6 -313 13 -445 15 l-240 2 -13 44 c-12 44 -8 89 11 121 8 12 8 23
0 40 -12 25 -33 320 -33 465 0 75 4 98 21 127 18 30 18 35 5 43 -14 8 -15 27
-7 150 5 78 12 146 15 152 4 5 0 47 -8 94 -15 85 -11 159 15 261 7 31 7 54 0
83 -7 25 -7 51 -2 71 15 50 21 55 42 36 17 -15 22 -15 56 -1 30 11 97 15 313
18 151 1 320 2 375 1 55 0 226 0 380 1 365 2 492 1 652 -4 72 -2 133 -2 136 1
3 3 13 55 23 115 15 87 18 167 19 390 0 154 4 285 8 292 4 7 1 22 -7 35 -21
33 -35 98 -45 216 -8 81 -14 107 -28 118 -13 10 -50 13 -143 13 -69 -1 -458 0
-865 2 -407 2 -761 0 -787 -4 l-47 -8 12 30 c8 23 8 33 -2 45 -19 22 -31 20
-63 -11 -36 -35 -46 -25 -61 60 l-11 65 32 32 c42 41 42 67 0 78 -31 8 -33 12
-40 63 -16 130 -21 455 -8 564 7 61 14 135 16 165 1 30 8 150 14 265 7 116 13
239 15 275 l3 65 283 0 c715 0 2047 -16 2084 -25 56 -13 111 -12 123 3 15 19
50 179 68 317 25 193 23 617 -4 683 -7 16 -12 40 -12 55 0 15 -7 70 -17 124
l-17 96 -76 7 c-41 3 -604 8 -1250 10 -646 3 -1245 9 -1330 14 -186 12 -362
12 -410 0z m110 -93 c0 -3 -107 -87 -237 -187 -131 -101 -290 -224 -353 -274
-153 -121 -140 -116 -140 -50 0 54 2 58 53 112 28 30 97 86 152 124 55 37 158
115 229 173 l129 106 84 0 c45 0 83 -2 83 -4z m328 -18 c2 -12 -7 -22 -25 -30
-36 -16 -535 -407 -668 -523 -55 -48 -161 -144 -235 -214 l-135 -126 -6 95
c-4 52 -3 104 1 116 10 25 98 100 519 437 l334 268 106 -3 c91 -3 106 -5 109
-20z m1602 -105 c-69 -71 -276 -281 -461 -468 -389 -396 -454 -467 -446 -494
4 -17 -2 -21 -47 -26 -28 -3 -89 -5 -136 -3 l-85 3 140 148 c77 81 275 277
440 434 165 158 356 342 425 410 l125 123 85 0 85 0 -125 -127z m-2265 81
c-22 -20 -119 -96 -217 -169 l-176 -133 -4 58 c-3 54 -1 60 22 74 14 8 57 47
95 86 66 67 69 72 51 85 -15 11 -16 16 -5 19 21 8 84 13 184 14 l90 1 -40 -35z
m1025 23 c0 -7 -20 -27 -44 -44 -117 -83 -941 -741 -1238 -990 l-148 -124 0
96 c0 87 2 95 19 95 11 0 77 57 158 138 182 180 364 338 706 613 l282 227 133
1 c102 1 132 -2 132 -12z m585 4 c29 -6 30 -6 10 -23 -11 -10 -47 -42 -80 -72
-33 -29 -130 -114 -217 -187 -356 -304 -578 -498 -669 -584 -53 -49 -119 -106
-147 -126 -29 -20 -82 -63 -118 -95 -104 -94 -507 -480 -648 -623 -71 -71
-133 -128 -138 -125 -4 3 -8 52 -8 110 0 103 0 104 24 104 18 0 50 29 127 116
57 64 198 202 312 307 269 246 854 747 1172 1004 l250 202 50 -1 c28 0 63 -3
80 -7z m256 -9 c-5 -10 -42 -47 -83 -82 -40 -36 -166 -157 -279 -270 -113
-113 -231 -225 -261 -250 -109 -88 -478 -411 -478 -418 -1 -13 -414 -429 -463
-466 -27 -20 -65 -58 -87 -84 -21 -27 -73 -80 -116 -118 -43 -38 -165 -152
-271 -254 -107 -101 -200 -188 -208 -193 -13 -7 -15 7 -15 93 l0 101 263 263
c273 274 454 441 792 730 581 497 785 673 935 807 91 81 175 149 185 152 11 2
37 5 58 6 33 1 37 -1 28 -17z m217 10 c-1 -5 -187 -189 -413 -409 -382 -373
-478 -469 -628 -631 l-58 -62 -85 0 c-46 0 -84 3 -84 8 0 16 202 206 385 362
105 89 282 249 395 354 113 106 240 223 283 260 53 47 80 77 84 97 5 28 7 29
65 29 33 0 58 -4 56 -8z m570 0 l52 -7 -236 -225 c-291 -277 -606 -598 -739
-753 l-100 -116 -107 -1 c-101 0 -108 1 -108 20 0 24 184 219 370 392 74 69
266 254 425 411 l290 286 50 -1 c28 0 74 -3 103 -6z m312 -49 c-30 -32 -114
-119 -186 -193 -157 -162 -202 -212 -278 -307 -31 -40 -61 -73 -66 -73 -4 0
-47 -37 -94 -82 -225 -218 -350 -351 -351 -373 0 -29 -71 -40 -176 -29 l-84 9
125 135 c159 173 653 667 837 838 l142 132 93 0 92 0 -54 -57z m-3250 43 c0
-2 -27 -37 -60 -76 l-60 -72 0 70 0 71 33 4 c50 6 87 7 87 3z m1649 0 c-2 -2
-105 -79 -228 -171 -244 -183 -460 -360 -617 -506 -148 -139 -248 -228 -459
-409 -104 -89 -249 -221 -321 -292 l-132 -130 -7 122 c-7 112 -6 124 11 140
329 308 980 833 1474 1188 l85 61 99 0 c55 1 97 -1 95 -3z m1859 -49 l3 -49
-253 -254 c-139 -139 -280 -284 -313 -320 -33 -37 -93 -100 -132 -140 -40 -41
-73 -77 -73 -81 0 -4 -42 -52 -93 -106 l-92 -98 -108 3 -108 3 287 300 c158
165 400 411 538 548 l251 247 45 -2 45 -3 3 -48z m39 -257 c5 -74 3 -92 -13
-119 -10 -17 -123 -128 -250 -246 -250 -233 -357 -345 -379 -398 -8 -20 -24
-37 -37 -41 -29 -7 -110 -7 -167 2 l-43 7 57 75 c32 41 169 188 304 325 135
138 304 312 376 388 148 157 141 157 152 7z m3 -312 l0 -93 -98 -82 c-158
-134 -262 -238 -262 -262 0 -21 1 -21 33 -5 42 22 81 51 201 151 54 46 102 83
106 83 11 0 -20 -283 -32 -295 -4 -4 -510 24 -515 29 -9 9 178 205 359 374
112 105 204 191 206 191 1 1 2 -41 2 -91z m-2583 -759 l6 -96 -53 -44 c-132
-111 -307 -282 -646 -631 -201 -208 -369 -378 -374 -378 -15 0 -23 68 -18 161
l5 88 53 61 c29 33 172 174 319 312 146 139 360 345 476 460 239 237 223 232
232 67z m-17 -277 c0 -26 -3 -71 -7 -100 l-6 -52 -201 -174 c-253 -218 -480
-429 -619 -577 -60 -63 -119 -118 -131 -124 -13 -5 -39 -29 -59 -52 -19 -23
-37 -39 -41 -36 -3 4 -6 34 -6 68 l0 62 403 405 c481 484 644 641 657 633 6
-3 10 -27 10 -53z m-20 -428 c-13 -60 -35 -86 -195 -224 -60 -52 -168 -151
-240 -220 -71 -69 -235 -219 -363 -334 -128 -114 -236 -215 -239 -223 -7 -17
7 -45 23 -50 15 -5 186 142 372 318 381 361 440 416 531 491 l96 79 7 -38 c22
-121 8 -147 -137 -259 -55 -42 -132 -105 -171 -140 -40 -35 -79 -64 -88 -64
-8 0 -23 -11 -31 -24 -9 -14 -67 -69 -128 -123 -62 -54 -171 -154 -242 -223
-134 -128 -237 -220 -249 -220 -3 0 -6 102 -6 227 l0 228 62 55 c34 30 121
114 193 185 167 168 568 529 735 663 l75 60 3 -56 c2 -32 -1 -80 -8 -108z m10
-450 c6 -14 10 -47 10 -73 l0 -48 -147 -125 c-82 -68 -269 -225 -418 -348
-148 -123 -297 -253 -330 -288 -59 -65 -149 -142 -165 -142 -12 0 -18 82 -7
113 5 15 35 49 67 75 74 61 220 193 450 408 182 170 508 453 523 454 4 0 12
-12 17 -26z m30 -266 c37 -82 31 -99 -68 -175 -185 -144 -655 -555 -819 -718
-95 -93 -176 -171 -180 -172 -5 -2 -8 18 -9 44 0 27 -4 68 -8 93 -7 42 -5 49
19 79 47 55 304 291 415 381 58 46 182 150 275 230 179 154 335 279 348 280 4
0 17 -19 27 -42z m678 -144 c-2 -9 -12 -22 -23 -28 -11 -6 -110 -99 -220 -206
-254 -248 -384 -368 -780 -720 -176 -157 -376 -339 -445 -405 -139 -133 -258
-238 -291 -255 l-21 -12 7 109 c9 125 -1 108 169 282 136 139 229 222 512 457
131 108 322 277 424 374 107 102 242 219 320 277 74 55 144 110 154 121 17 19
30 22 108 22 78 0 89 -2 86 -16z m292 -4 c-19 -35 -238 -250 -400 -392 -85
-75 -191 -173 -235 -218 -44 -45 -255 -241 -470 -435 -379 -342 -584 -530
-832 -762 l-120 -112 -11 50 c-7 28 -12 68 -12 89 0 34 6 43 48 77 26 21 72
65 102 97 143 154 316 313 820 751 146 126 371 333 501 460 130 126 280 271
335 322 l99 92 93 0 c90 1 92 0 82 -19z m265 -22 c-62 -70 -543 -544 -640
-631 -49 -45 -158 -148 -241 -229 -123 -121 -156 -148 -180 -148 -16 -1 -54
-14 -84 -29 l-55 -29 -10 -79 -10 -78 -335 -321 c-184 -176 -432 -412 -550
-525 l-215 -204 -7 40 c-11 64 -8 198 5 221 23 40 522 518 774 741 297 263
406 362 818 743 171 158 342 314 380 347 81 69 173 167 188 200 10 22 16 23
105 23 l94 0 -37 -42z m395 34 c0 -11 -692 -709 -884 -891 l-148 -141 -147 -6
-146 -6 50 48 c665 637 927 887 958 914 23 20 37 41 37 56 0 21 5 23 63 27
130 7 217 7 217 -1z m269 0 l44 -7 -155 -165 c-85 -91 -295 -302 -467 -468
-178 -174 -311 -312 -311 -322 0 -26 25 -43 52 -35 13 4 222 208 465 453 244
245 446 443 449 439 10 -10 33 -129 34 -173 0 -51 -27 -87 -135 -181 -135
-118 -545 -549 -534 -560 15 -15 -240 -26 -408 -18 -76 3 -159 2 -185 -3 -34
-7 -48 -6 -48 2 0 6 55 63 122 126 67 63 292 284 500 490 208 206 391 387 406
401 29 29 80 35 171 21z m-1529 -9 c0 -10 -52 -55 -185 -161 -128 -103 -301
-258 -480 -431 -60 -59 -166 -149 -235 -201 -69 -52 -179 -144 -245 -204 -66
-60 -163 -145 -215 -188 l-95 -79 -3 92 c-3 85 -1 94 24 130 75 109 557 553
964 888 l195 161 138 0 c75 0 137 -3 137 -7z m1640 -505 c0 -40 3 -83 6 -95 5
-17 2 -23 -9 -23 -9 0 -35 -27 -57 -60 -38 -56 -98 -112 -250 -232 -38 -31
-57 -53 -60 -74 l-5 -29 -87 -3 c-65 -1 -88 1 -88 10 0 27 517 578 542 578 5
0 8 -33 8 -72z m-4 -368 c-4 -66 -9 -126 -12 -134 -8 -22 -75 -28 -193 -19
l-103 8 90 68 c50 37 117 97 148 132 32 36 62 65 67 65 6 0 7 -44 3 -120z
m-1992 -696 c-4 -43 -11 -57 -47 -91 -23 -22 -62 -55 -87 -74 -326 -246 -785
-659 -864 -778 -24 -36 -58 -74 -75 -84 l-31 -18 0 131 c0 128 0 130 20 118
18 -12 40 7 258 223 291 288 493 484 677 654 l140 129 7 -79 c4 -44 5 -103 2
-131z m-8 -267 c5 -45 2 -80 -9 -118 -14 -48 -24 -61 -84 -109 -142 -114 -349
-306 -657 -610 -184 -181 -321 -309 -322 -300 -17 119 -25 223 -20 246 5 19
71 93 189 213 252 254 469 450 766 690 130 105 125 106 137 -12z m-10 -319
c-3 -29 -6 -71 -6 -93 0 -37 -5 -45 -63 -94 -34 -29 -181 -162 -327 -296 -366
-334 -655 -584 -664 -574 -2 2 -7 30 -11 62 l-8 59 54 46 c29 26 163 155 298
287 311 303 700 655 725 655 5 0 6 -23 2 -52z m3 -415 l1 -63 -220 -165 c-260
-195 -392 -306 -555 -464 -66 -65 -156 -151 -200 -191 l-80 -75 -7 45 c-3 25
-7 68 -7 97 -1 64 16 87 149 191 110 87 193 160 414 362 87 80 234 211 325
293 l166 147 6 -57 c4 -32 7 -86 8 -120z m16 -195 c10 -52 26 -86 42 -92 22
-9 6 -26 -142 -150 -66 -55 -199 -168 -295 -251 -96 -83 -221 -188 -277 -233
-56 -45 -149 -126 -205 -180 -106 -100 -190 -172 -202 -172 -3 0 -6 49 -6 109
l0 109 53 33 c28 19 138 117 242 219 105 102 245 231 312 287 137 116 448 353
462 353 5 0 12 -15 16 -32z m268 -148 c-10 -16 -214 -226 -454 -467 -450 -453
-492 -498 -529 -572 -20 -40 -24 -43 -52 -37 -17 3 -91 6 -164 6 -90 0 -134 4
-134 11 0 38 554 532 1049 936 l186 151 58 1 59 1 -19 -30z m332 20 c4 -6 -5
-24 -19 -41 -14 -17 -26 -36 -27 -42 0 -7 -59 -61 -131 -122 -170 -144 -456
-421 -605 -588 -132 -147 -135 -150 -144 -135 -10 16 -22 5 -85 -82 l-57 -80
-89 0 c-48 0 -88 4 -88 8 0 24 274 315 624 662 230 229 396 401 396 412 0 16
11 18 109 18 64 0 112 -4 116 -10z m248 4 c20 -4 37 -11 37 -16 0 -4 -136
-147 -301 -316 -333 -339 -472 -492 -586 -645 l-75 -102 -57 -6 c-83 -10 -241
-10 -241 -1 0 15 24 32 45 32 15 0 50 32 111 103 119 138 454 471 644 641 193
172 220 200 220 228 0 35 83 85 145 87 11 0 37 -2 58 -5z m341 -23 c3 -5 -115
-134 -263 -287 -283 -294 -408 -432 -550 -603 -149 -181 -120 -161 -248 -168
-62 -3 -113 -2 -113 2 0 11 131 173 245 300 53 61 235 253 404 428 168 175
308 322 309 327 5 13 209 13 216 1z m235 3 c33 -4 61 -11 61 -17 0 -5 -24 -35
-52 -66 -115 -125 -620 -750 -732 -907 l-30 -40 -155 -11 c-86 -6 -157 -10
-159 -8 -5 4 204 257 367 444 79 91 240 261 357 378 118 117 214 217 214 223
0 12 40 13 129 4z m353 0 l37 -6 -16 -27 c-9 -14 -51 -62 -93 -106 -135 -142
-219 -248 -451 -571 -51 -71 -109 -149 -131 -173 -21 -24 -38 -52 -38 -62 0
-61 77 -8 173 118 315 419 402 528 493 619 82 80 106 111 120 152 l19 52 104
0 c96 0 102 -1 90 -17 -8 -9 -99 -116 -203 -237 -195 -229 -501 -600 -545
-662 -21 -30 -23 -38 -13 -55 12 -18 8 -19 -106 -19 -65 0 -187 -3 -270 -7
-178 -7 -178 -7 -104 78 27 29 83 104 124 164 132 190 269 360 418 520 57 61
125 137 153 170 27 33 55 63 61 67 13 9 127 10 178 2z m669 -11 c-5 -10 -54
-65 -108 -123 -115 -122 -624 -736 -668 -807 l-30 -48 -133 -3 c-132 -3 -133
-2 -122 18 23 43 481 598 699 847 l116 133 128 0 c119 0 127 -1 118 -17z m105
-68 c8 -20 14 -67 14 -115 l0 -81 -112 -128 c-212 -240 -480 -572 -474 -587 4
-12 -13 -14 -107 -14 -62 0 -118 4 -125 8 -20 13 125 214 317 437 117 136 461
515 467 515 3 0 12 -16 20 -35z m20 -455 c-8 -102 -15 -125 -31 -100 -12 19
-23 10 -74 -55 -29 -36 -90 -106 -136 -155 -84 -88 -93 -102 -76 -129 7 -11
13 -11 32 -1 62 33 117 82 183 165 l71 89 3 -62 c2 -34 -4 -95 -13 -136 -8
-41 -15 -85 -15 -97 0 -21 -3 -21 -67 -15 -38 3 -139 9 -226 12 -87 4 -160 10
-162 14 -11 18 483 580 511 580 5 0 5 -47 0 -110z"/>
<path d="M30970 9169 c-111 -10 -301 -37 -308 -44 -6 -5 -122 -338 -226 -645
-41 -118 -101 -286 -134 -372 -34 -87 -68 -187 -77 -223 -8 -36 -33 -99 -55
-141 -22 -42 -40 -81 -40 -88 0 -7 -21 -58 -46 -112 -26 -54 -82 -190 -124
-301 -80 -205 -168 -397 -183 -395 -10 1 -194 406 -264 577 -24 61 -64 175
-88 255 -24 80 -79 242 -121 360 -42 118 -98 283 -125 367 -55 171 -104 289
-145 354 -15 24 -31 63 -35 86 -5 23 -29 93 -54 156 -25 64 -45 119 -45 125 0
5 -70 12 -157 15 -87 3 -293 11 -458 18 -261 10 -327 10 -504 -4 -112 -9 -206
-19 -209 -22 -3 -3 0 -11 6 -17 17 -17 15 -31 -3 -24 -9 3 -19 -3 -25 -14 -12
-23 -6 -41 75 -225 31 -71 66 -155 76 -185 11 -30 30 -71 43 -90 12 -19 28
-50 34 -68 6 -18 21 -47 33 -63 19 -27 20 -33 8 -56 -12 -23 -11 -27 15 -46
56 -41 172 -309 336 -777 32 -91 115 -300 185 -465 70 -165 160 -381 200 -480
40 -99 105 -250 145 -335 84 -180 129 -288 177 -420 53 -148 138 -353 203
-490 39 -82 63 -147 69 -189 7 -41 7 -220 1 -510 -9 -438 -6 -674 21 -1650 10
-356 10 -478 0 -613 -7 -95 -10 -206 -6 -256 7 -87 8 -89 39 -105 80 -40 482
-47 856 -13 297 27 341 33 353 45 8 8 12 59 11 164 -1 84 -7 753 -13 1487 -9
998 -9 1356 -1 1420 10 72 22 108 85 240 89 186 162 368 240 590 31 91 68 187
82 214 13 26 58 134 99 240 41 105 93 224 115 264 21 41 39 86 39 101 0 16 8
39 19 52 30 39 65 116 109 239 92 258 387 978 475 1160 83 173 205 460 219
519 7 25 17 53 24 61 23 29 43 78 62 147 l19 70 -23 51 c-22 51 -23 51 -56 41
-21 -6 -58 -6 -103 1 -205 29 -624 38 -845 19z m718 -89 c18 -11 40 -20 50
-20 24 0 -22 -29 -258 -165 -229 -131 -350 -211 -490 -326 -80 -65 -509 -359
-544 -373 -6 -2 -1 -14 12 -27 l23 -24 66 35 c95 50 308 191 466 308 199 147
367 261 489 330 59 34 158 92 220 130 62 38 128 77 146 86 l34 18 -7 -34 c-3
-18 -20 -74 -36 -124 l-30 -91 -52 -24 c-83 -38 -308 -176 -601 -368 -276
-181 -808 -511 -825 -511 -5 0 -14 -7 -21 -15 -23 -27 -21 -10 6 61 15 38 62
170 104 294 l78 225 33 6 c44 7 129 60 365 225 233 163 342 232 457 290 82 42
88 47 83 70 l-6 24 90 0 c58 0 89 4 85 10 -11 17 28 11 63 -10z m-342 -3 c-39
-24 -436 -291 -606 -407 -96 -66 -179 -120 -183 -120 -13 0 3 80 23 120 24 47
111 127 190 175 36 22 99 62 140 90 41 28 101 62 133 75 45 19 57 28 57 46 0
28 15 31 160 32 85 1 101 -1 86 -11z m-3386 -6 c0 -16 -255 -199 -264 -190 -3
3 -18 42 -34 87 -19 54 -26 85 -19 89 6 4 76 10 156 13 80 4 149 7 154 8 4 1
7 -2 7 -7z m318 -7 c2 -1 -38 -34 -90 -73 -51 -38 -163 -123 -248 -188 l-154
-119 -28 59 c-16 33 -27 60 -26 61 2 1 28 20 58 43 30 22 75 53 100 69 83 52
155 111 169 138 l14 26 101 -6 c56 -4 103 -8 104 -10z m2632 -40 c-46 -31
-124 -87 -174 -125 -50 -38 -92 -65 -94 -60 -4 12 56 193 68 205 8 8 179 32
249 35 32 1 30 -2 -49 -55z m-2327 38 l38 -7 -108 -80 c-150 -112 -430 -337
-541 -434 l-92 -82 -11 28 c-6 15 -19 49 -29 75 l-18 48 62 57 c68 64 152 128
328 253 65 46 135 98 155 116 35 31 43 33 108 33 39 0 87 -3 108 -7z m216 -13
c47 -10 52 -14 71 -56 11 -25 20 -52 20 -60 0 -39 -43 -78 -330 -298 -190
-145 -315 -249 -441 -365 l-95 -88 -48 95 -47 96 43 44 c105 109 320 288 582
486 100 76 170 135 168 143 -3 17 11 17 77 3z m166 -311 c22 -51 40 -96 40
-100 0 -4 -27 -26 -60 -49 -33 -23 -225 -166 -427 -317 -243 -181 -368 -280
-368 -292 0 -10 -7 -23 -15 -30 -16 -13 -14 -17 -60 108 l-23 63 87 76 c47 41
146 123 220 182 373 296 435 346 488 396 32 30 63 54 68 55 6 0 29 -42 50 -92z
m2800 -90 c-4 -13 -29 -71 -57 -129 l-49 -105 -97 -48 c-122 -60 -216 -117
-462 -276 -107 -69 -235 -150 -285 -180 -49 -29 -135 -82 -189 -118 -127 -83
-470 -292 -474 -288 -1 2 28 72 65 155 63 143 69 152 91 146 18 -4 51 9 126
51 158 90 404 240 705 432 322 205 611 382 624 382 4 0 5 -10 2 -22z m-2684
-190 c12 -39 18 -73 13 -78 -5 -4 -108 -84 -229 -176 -197 -149 -290 -222
-475 -373 -61 -49 -168 -121 -182 -121 -4 0 -8 7 -8 15 0 9 -11 43 -25 76 -14
33 -23 64 -20 69 14 22 230 201 368 304 409 305 511 375 524 364 7 -6 23 -42
34 -80z m2495 -232 c-14 -35 -26 -69 -26 -74 0 -19 -1579 -1182 -1605 -1182
-13 0 0 43 64 202 38 95 71 180 74 189 3 9 58 47 124 84 196 114 495 298 953
589 239 151 436 271 438 266 2 -5 -8 -39 -22 -74z m-2407 -7 c11 -30 22 -70
26 -90 6 -35 6 -36 -67 -84 -89 -59 -265 -191 -453 -340 -213 -169 -346 -268
-362 -269 -14 -1 -52 79 -72 151 -9 30 -7 35 22 55 18 12 97 74 177 138 206
165 321 250 513 379 92 63 170 118 173 123 10 15 22 -3 43 -63z m99 -292 c12
-39 22 -79 22 -87 0 -8 -40 -40 -88 -70 -141 -88 -779 -576 -775 -591 2 -5 -1
-9 -5 -9 -5 0 -27 42 -49 94 l-40 94 106 72 c58 40 207 148 331 240 216 160
457 330 469 330 3 0 16 -33 29 -73z m2166 -24 c-14 -38 -35 -92 -46 -120 -21
-58 -21 -58 -49 -43 -17 9 -34 -3 -128 -88 -140 -127 -270 -231 -423 -339 -68
-47 -445 -317 -838 -598 -393 -282 -757 -538 -809 -571 -52 -32 -120 -82 -151
-111 -32 -29 -60 -53 -63 -53 -6 0 -99 211 -95 215 18 17 842 553 861 560 9 4
19 -8 30 -35 14 -36 19 -40 49 -40 32 0 35 3 70 82 30 69 41 84 65 90 43 12
806 562 1333 961 113 86 208 156 212 156 4 1 -4 -29 -18 -66z m-2104 -168 c0
-2 14 -53 31 -112 17 -60 27 -109 21 -111 -32 -10 -238 -156 -354 -250 -76
-61 -177 -137 -225 -170 -99 -66 -265 -162 -280 -162 -10 0 -73 139 -73 160 0
6 11 15 24 21 13 6 26 19 29 28 2 10 112 101 243 203 279 216 349 266 474 342
87 52 110 63 110 51z m1980 -140 c0 -9 -11 -38 -25 -65 -14 -27 -25 -56 -25
-65 0 -8 -7 -15 -15 -15 -8 0 -67 -46 -132 -103 -146 -127 -224 -190 -428
-344 -295 -222 -513 -381 -622 -454 -59 -40 -173 -122 -253 -184 -80 -61 -192
-142 -250 -178 -58 -36 -143 -96 -190 -132 -47 -36 -145 -111 -217 -167 -138
-105 -155 -128 -109 -149 21 -10 33 -7 78 19 29 17 89 63 133 102 44 39 136
111 205 159 69 48 256 182 416 297 161 115 359 255 440 311 198 135 422 304
605 455 212 174 243 198 255 198 7 0 -11 -53 -38 -119 -42 -99 -53 -118 -69
-114 -13 4 -84 -52 -251 -199 -334 -294 -558 -478 -676 -560 -57 -39 -127 -91
-155 -116 -28 -25 -90 -70 -137 -100 -73 -48 -227 -163 -350 -264 -144 -117
-206 -162 -273 -198 -42 -23 -88 -55 -101 -71 -14 -16 -27 -29 -29 -29 -12 0
-155 387 -146 394 2 1 81 56 174 121 760 532 2135 1534 2160 1575 9 15 25 12
25 -5z m-1872 -177 c11 -24 27 -67 36 -95 l15 -52 -137 -94 c-327 -223 -473
-318 -645 -415 l-106 -61 -25 55 c-14 30 -27 61 -28 68 -2 7 58 54 133 104 75
50 268 190 430 312 161 121 296 220 300 220 4 0 16 -19 27 -42z m123 -294 c22
-56 22 -57 3 -71 -436 -321 -848 -603 -861 -589 -2 1 -15 36 -28 77 l-26 74
33 28 c50 42 191 137 308 207 58 34 175 108 260 165 142 95 262 165 280 165 4
0 18 -25 31 -56z m1577 -141 c2 -8 -6 -13 -22 -13 -25 0 -33 10 -19 24 10 10
36 3 41 -11z m-1503 -26 c8 -13 23 -49 34 -80 l18 -57 -26 0 c-29 0 -335 -187
-477 -292 -47 -35 -120 -87 -162 -117 -42 -30 -107 -76 -144 -102 l-67 -48
-18 23 c-11 13 -27 43 -38 66 -17 37 -17 44 -5 52 139 84 265 169 492 330 393
279 367 264 393 225z m1382 -104 c-13 -26 -51 -101 -85 -165 -34 -65 -62 -128
-62 -141 0 -13 -6 -30 -12 -39 -7 -8 -87 -64 -178 -123 -189 -124 -344 -232
-655 -460 -310 -227 -515 -372 -689 -488 -83 -55 -150 -105 -148 -111 2 -6 11
-19 21 -29 18 -18 23 -16 157 74 77 51 180 122 229 159 50 37 164 118 255 180
91 62 269 191 395 285 212 159 386 279 509 350 48 28 48 28 41 5 -4 -13 -25
-62 -48 -109 -22 -47 -50 -113 -62 -146 l-23 -60 -109 -55 c-113 -57 -222
-126 -365 -232 -180 -134 -764 -530 -909 -616 l-36 -22 -5 47 c-3 31 -27 94
-66 177 -34 71 -62 130 -62 131 0 1 18 5 41 8 51 7 183 93 369 242 74 59 232
180 350 268 392 292 440 330 804 635 198 167 362 299 364 293 2 -5 -7 -32 -21
-58z m-433 -1047 c-19 -65 -44 -136 -54 -156 -24 -48 -93 -108 -162 -143 -105
-53 -355 -195 -451 -256 -54 -34 -133 -81 -175 -104 -42 -22 -79 -43 -82 -46
-3 -3 -9 -7 -15 -8 -14 -2 -324 -181 -360 -207 -57 -42 -55 -44 -55 46 l0 83
275 180 c511 334 759 500 883 589 107 77 222 149 229 143 1 -1 -14 -56 -33
-121z m-200 -482 c-25 -71 -48 -135 -50 -142 -2 -8 -12 -12 -21 -10 -32 8
-220 -98 -528 -296 -194 -124 -407 -255 -487 -300 l-68 -38 0 108 c0 90 3 109
18 121 48 39 192 129 317 198 77 42 184 104 238 137 121 75 621 357 625 354 1
-2 -18 -61 -44 -132z m-59 -276 c4 -24 2 -81 -4 -128 -6 -46 -11 -90 -11 -97
0 -7 -24 -22 -52 -35 -84 -35 -584 -287 -801 -403 -108 -58 -204 -108 -212
-111 -13 -5 -15 9 -15 84 l0 91 88 52 c48 29 204 125 347 213 315 194 626 376
642 376 6 0 15 -19 18 -42z m-11 -344 c3 -9 6 -51 6 -95 l0 -79 -172 -86
c-189 -95 -909 -444 -915 -444 -2 0 -2 41 -1 91 l3 91 110 60 c376 204 918
476 951 478 7 0 15 -7 18 -16z m11 -377 l0 -82 -30 -5 c-16 -3 -70 -29 -119
-58 -201 -121 -899 -472 -937 -472 -6 0 -9 35 -7 93 l3 92 535 267 c331 164
539 263 545 257 5 -5 9 -46 10 -92z m9 -277 l6 -125 -102 -39 c-125 -47 -334
-144 -585 -270 -188 -94 -402 -191 -408 -184 -1 1 -5 44 -7 93 l-5 90 321 154
c177 85 422 212 546 282 124 70 225 127 226 126 1 -1 4 -58 8 -127z m-4 -285
c0 -63 -3 -85 -13 -85 -19 0 -156 -68 -267 -132 -52 -30 -162 -87 -245 -127
-82 -39 -166 -85 -186 -100 -19 -16 -80 -48 -135 -71 -54 -23 -122 -55 -150
-71 -28 -16 -61 -29 -73 -29 -20 0 -21 5 -21 93 l0 94 53 29 c89 49 990 470
1035 483 1 1 2 -37 2 -84z m5 -197 c3 -18 2 -68 -2 -112 l-8 -78 -105 -38
c-123 -44 -365 -158 -465 -220 -38 -23 -165 -91 -281 -150 l-212 -107 -4 96
c-3 53 -4 97 -4 97 1 1 186 94 411 207 226 114 462 235 525 271 63 35 120 65
127 65 7 1 15 -14 18 -31z m-12 -432 l-8 -46 -240 -104 c-132 -57 -368 -160
-524 -230 -214 -95 -287 -123 -293 -114 -4 7 -7 39 -6 71 l3 59 245 130 c345
184 630 322 735 357 l90 30 3 -53 c2 -29 -1 -74 -5 -100z m4 -158 c6 -13 8
-48 6 -78 -5 -50 -9 -58 -43 -82 -20 -15 -91 -51 -156 -80 -66 -30 -247 -121
-404 -203 -284 -149 -475 -245 -487 -245 -7 0 5 282 12 289 3 2 14 -4 25 -14
19 -17 33 -12 472 188 578 262 541 245 554 246 6 1 15 -9 21 -21z m7 -264 c3
-9 6 -46 6 -83 l0 -67 -361 -179 c-198 -98 -374 -189 -391 -203 -22 -19 -28
-31 -24 -48 6 -23 4 -24 -46 -24 -29 0 -104 3 -165 7 l-113 6 1 66 c0 52 3 62
11 50 15 -21 -15 -34 543 238 593 289 530 261 539 237z m-6 -376 c-13 -9 -61
-33 -108 -52 -121 -51 -150 -70 -143 -96 6 -24 -4 -26 161 35 l117 43 3 -36
c2 -19 1 -46 -2 -59 -6 -21 -12 -23 -69 -23 -34 0 -141 -12 -237 -26 -96 -14
-236 -28 -310 -30 l-135 -5 24 20 c53 47 384 217 616 317 l100 43 3 -56 c3
-50 0 -59 -20 -75z"/>
<path d="M17071 9163 c-114 -3 -126 -6 -153 -28 -16 -14 -33 -25 -36 -25 -4 0
-8 -141 -9 -312 0 -172 -1 -371 -2 -443 0 -71 -5 -154 -11 -183 -7 -39 -7 -59
2 -75 15 -28 12 -301 -4 -326 -8 -13 -6 -26 8 -52 18 -32 19 -74 24 -739 4
-557 2 -707 -7 -713 -17 -11 -16 -27 2 -47 12 -13 16 -88 21 -456 3 -241 6
-582 4 -757 -1 -175 4 -490 10 -700 9 -299 9 -468 -1 -777 -18 -568 3 -1194
47 -1393 5 -24 10 -28 30 -23 17 5 26 1 34 -14 6 -11 18 -20 26 -20 11 0 14
-6 10 -16 -7 -18 10 -54 26 -54 6 0 34 15 62 34 l51 33 305 -9 c322 -10 433
-7 725 17 99 8 288 19 420 25 132 6 282 17 333 25 72 11 105 12 141 3 37 -8
69 -7 149 6 57 9 142 16 191 16 79 0 96 3 162 34 41 19 107 44 147 56 65 19
86 32 190 119 64 54 177 160 250 235 l133 137 95 192 c91 185 148 337 193 512
48 190 67 406 36 429 -12 9 -13 45 -4 256 6 135 8 355 5 490 -5 210 -4 249 9
267 13 19 14 30 4 68 -13 51 -7 170 12 223 9 26 8 36 -2 49 -11 13 -13 79 -12
332 2 220 -3 386 -14 546 -13 165 -18 379 -20 760 -2 632 -13 874 -42 925 -25
47 -76 210 -73 236 2 21 -103 285 -152 383 -36 70 -141 224 -163 237 -10 6
-58 44 -108 84 -49 40 -121 87 -160 104 -38 18 -84 45 -101 59 -17 15 -74 43
-125 62 -52 20 -125 53 -164 74 -64 34 -81 39 -192 49 -67 7 -177 23 -245 36
-77 16 -195 29 -318 36 -188 11 -1484 21 -1739 13z m843 -81 l40 -7 -90 -65
c-120 -87 -240 -188 -413 -344 -197 -179 -343 -307 -427 -377 -81 -66 -84 -65
-84 30 0 125 8 148 74 219 89 95 289 268 464 400 91 69 151 121 148 128 -3 9
7 14 32 17 65 7 216 6 256 -1z m-749 -13 c4 -6 -12 -27 -36 -47 -23 -20 -68
-63 -99 -94 -32 -32 -62 -58 -67 -58 -11 0 -25 164 -16 186 6 17 31 21 130 23
49 0 84 -3 88 -10z m320 -46 c-33 -31 -111 -95 -174 -141 -62 -46 -161 -129
-220 -184 -140 -132 -138 -131 -146 -65 -14 110 29 172 254 366 l94 81 126 0
126 -1 -60 -56z m854 53 c-2 -2 -79 -64 -170 -137 -239 -192 -475 -394 -871
-742 -250 -220 -348 -301 -352 -290 -3 8 -6 63 -6 123 l0 108 48 38 c77 63
246 210 417 363 238 214 393 345 529 448 l121 93 144 0 c79 0 142 -2 140 -4z
m286 -24 c-6 -5 -41 -33 -80 -63 -182 -141 -451 -382 -815 -729 -568 -541
-751 -706 -763 -685 -4 8 -11 59 -14 113 l-6 98 77 69 c43 39 150 137 239 219
379 349 640 571 912 779 99 75 198 152 220 171 40 35 40 35 140 36 54 0 95 -4
90 -8z m255 -12 c0 -5 -33 -31 -72 -58 -100 -68 -398 -321 -538 -456 -63 -61
-207 -195 -320 -296 -176 -159 -407 -378 -871 -828 l-106 -103 -5 52 c-7 68 6
111 45 155 17 20 119 113 227 207 253 222 390 349 630 582 292 285 513 477
770 674 l105 80 68 0 c37 1 67 -3 67 -9z m218 -14 c40 -7 75 -15 78 -18 2 -3
-44 -47 -103 -98 -59 -51 -191 -169 -293 -264 -102 -94 -329 -300 -505 -456
-176 -156 -396 -359 -490 -450 -93 -92 -226 -216 -295 -276 -69 -60 -214 -196
-322 -303 l-198 -194 0 110 0 109 333 330 c322 319 546 534 731 699 49 44 162
147 250 229 305 282 687 596 726 595 8 0 48 -6 88 -13z m295 -42 c40 -9 75
-19 80 -23 4 -4 -46 -53 -110 -108 -123 -106 -337 -306 -647 -605 l-183 -178
-132 0 c-123 0 -131 1 -131 19 0 11 9 23 20 26 27 9 78 53 315 275 321 300
679 609 708 610 4 0 40 -7 80 -16z m311 -133 c-10 -10 -86 -79 -169 -154 -175
-158 -362 -347 -497 -503 l-96 -110 -59 7 c-32 4 -88 8 -125 8 -38 1 -68 5
-68 10 0 5 111 117 248 249 280 271 363 348 512 476 58 49 106 95 108 103 2 9
27 0 84 -28 78 -39 80 -41 62 -58z m179 -65 c42 -21 80 -42 82 -46 6 -9 -172
-161 -340 -290 -60 -47 -192 -163 -291 -257 l-182 -173 -61 28 -61 28 81 94
c111 129 386 400 549 542 74 64 137 116 140 114 3 -1 40 -19 83 -40z m193
-135 c21 -16 55 -43 74 -60 l35 -31 -30 -25 c-16 -14 -121 -90 -232 -170 -180
-130 -403 -321 -527 -453 l-29 -31 -18 24 c-11 13 -39 36 -64 52 -25 15 -45
33 -45 39 0 16 184 201 295 295 179 153 476 389 489 389 7 0 31 -13 52 -29z
m171 -183 c12 -13 35 -47 53 -76 28 -45 31 -56 19 -66 -8 -7 -97 -80 -199
-161 -266 -214 -412 -340 -520 -449 -52 -53 -98 -96 -101 -96 -4 0 -17 30 -29
68 -13 37 -32 82 -43 100 l-20 34 99 100 c135 136 322 300 430 376 114 80 277
189 285 191 3 0 15 -9 26 -21z m151 -275 c35 -68 55 -136 47 -162 -3 -10 -38
-40 -78 -66 -197 -131 -605 -450 -759 -593 l-65 -62 -12 83 c-20 146 -21 144
62 223 160 154 737 633 763 634 6 0 25 -26 42 -57z m-1435 -194 c116 -23 181
-48 253 -95 69 -46 104 -90 156 -199 35 -74 42 -97 42 -151 0 -50 3 -64 16
-67 10 -2 20 -19 23 -37 11 -54 8 -295 -8 -608 -23 -435 -9 -1769 21 -1990 3
-29 1 -101 -6 -161 -11 -93 -10 -139 5 -319 15 -179 16 -236 6 -379 -23 -345
-80 -537 -184 -616 -76 -57 -210 -101 -423 -137 -136 -24 -129 -24 -544 -1
l-115 6 3 35 c1 19 4 97 6 173 3 125 5 140 24 160 28 30 28 33 -5 62 l-28 23
-2 399 c-2 219 -5 601 -7 848 -3 248 -7 700 -10 1005 -3 305 -8 591 -12 635
-3 44 -1 141 5 215 7 74 12 218 12 319 0 110 4 201 11 223 9 32 9 41 -5 56
-15 16 -15 46 -7 307 5 160 9 290 10 291 0 1 75 4 168 9 92 4 208 10 257 14
124 8 222 3 338 -20z m-847 -150 c8 -48 10 -89 4 -102 -10 -27 -47 -61 -212
-201 -70 -59 -232 -207 -360 -329 -411 -393 -571 -539 -579 -525 -3 7 -9 37
-13 65 -5 40 -3 61 10 85 21 42 297 315 608 601 131 122 302 283 380 358 78
75 143 135 145 133 3 -2 10 -40 17 -85z m2358 62 c16 -30 51 -160 45 -165 -2
-1 -80 -57 -174 -124 -296 -212 -520 -392 -697 -561 l-106 -102 -8 68 c-16
143 -7 178 68 249 91 87 830 664 850 664 4 0 14 -13 22 -29z m79 -284 c3 -24
9 -90 12 -148 l6 -104 -103 -76 c-368 -272 -710 -531 -816 -618 -67 -55 -124
-101 -126 -101 -11 0 -14 72 -6 166 l8 108 44 35 c23 20 93 83 153 141 114
110 268 239 440 369 157 119 368 271 375 271 4 0 10 -19 13 -43z m-2441 -137
c4 -94 -9 -124 -74 -175 -183 -143 -534 -453 -744 -657 -83 -82 -157 -148
-165 -148 -7 0 -42 -30 -78 -67 l-64 -68 -8 50 c-4 28 -8 74 -8 102 -1 49 2
56 42 98 28 29 52 45 68 45 13 0 30 9 37 20 53 85 305 329 751 726 257 229
238 224 243 74z m3 -295 c4 -36 4 -98 0 -139 l-7 -74 -256 -173 c-428 -288
-494 -338 -829 -632 l-43 -39 0 65 0 65 72 63 c94 83 305 277 488 448 297 278
547 494 561 485 4 -2 11 -33 14 -69z m2463 -63 l3 -131 -136 -83 c-355 -217
-446 -284 -740 -551 -132 -120 -172 -151 -177 -138 -4 9 -7 70 -7 137 l-1 121
208 165 c369 294 815 621 837 614 6 -1 11 -58 13 -134z m2 -307 c0 -33 -3 -83
-6 -112 -7 -51 -8 -53 -83 -107 -42 -30 -168 -109 -281 -176 -243 -145 -252
-151 -489 -348 -133 -111 -186 -150 -192 -140 -18 28 -21 115 -6 144 17 33
289 288 453 425 152 127 248 194 404 283 73 43 145 86 159 96 33 24 41 12 41
-65z m-2466 34 c10 -53 -12 -161 -37 -181 -12 -9 -114 -74 -227 -144 -283
-176 -384 -244 -620 -419 -113 -83 -217 -159 -231 -168 l-26 -17 4 52 c4 52 6
55 103 149 177 174 359 317 696 545 104 70 218 149 254 175 36 25 68 45 71 43
4 -2 9 -18 13 -35z m-14 -385 c0 -128 -1 -135 -19 -129 -28 9 -536 -290 -904
-531 -104 -68 -192 -124 -198 -124 -5 0 -9 40 -9 89 0 80 2 89 18 85 10 -3 58
26 127 78 199 149 958 668 977 668 4 0 8 -61 8 -136z m2483 52 c28 -83 -35
-155 -258 -296 -235 -149 -401 -277 -752 -584 l-43 -38 0 114 0 114 105 89
c144 121 312 248 485 365 175 117 431 271 444 267 5 -2 14 -16 19 -31z m7
-293 c0 -43 3 -88 6 -100 5 -17 -3 -26 -43 -48 -200 -114 -378 -235 -768 -523
l-250 -184 -7 53 c-3 30 -6 71 -7 93 -1 34 1 38 20 33 15 -4 46 15 120 76 55
45 146 117 202 160 56 43 125 98 152 122 49 43 553 393 568 394 4 1 7 -34 7
-76z m-2476 33 c8 -31 -12 -190 -24 -194 -42 -15 -601 -345 -907 -536 -94 -58
-176 -106 -181 -106 -16 0 -22 28 -22 106 0 58 3 74 15 74 8 0 58 32 111 70
132 96 314 210 644 405 153 91 294 174 312 185 42 25 45 25 52 -4z m2491 -341
c9 -117 -5 -135 -180 -238 -196 -114 -557 -365 -705 -492 -47 -39 -99 -79
-116 -88 -40 -20 -49 -43 -24 -57 54 -29 101 -7 226 106 129 117 219 180 624
441 l175 113 3 -55 c2 -31 -3 -67 -10 -83 -9 -19 -117 -96 -363 -259 -438
-291 -585 -395 -630 -444 -39 -43 -43 -57 -19 -66 9 -3 43 14 87 44 419 291
760 512 905 587 l32 17 0 -136 0 -136 -47 3 c-45 2 -63 -5 -253 -111 -286
-159 -430 -254 -580 -382 -30 -26 -82 -66 -115 -89 l-60 -41 -6 73 c-4 40 -10
197 -14 349 l-8 275 139 111 c157 124 401 306 546 407 139 96 361 236 374 236
7 0 14 -32 19 -85z m-2502 42 c3 -7 2 -54 0 -104 l-6 -92 -201 -100 c-232
-116 -483 -263 -711 -419 -146 -99 -160 -111 -158 -137 1 -15 5 -30 8 -34 10
-9 132 58 204 114 197 152 828 502 856 474 16 -16 11 -192 -6 -198 -31 -10
-650 -327 -858 -440 -123 -66 -226 -121 -229 -121 -7 0 6 419 13 451 5 19 15
29 34 32 15 3 189 103 386 223 334 201 625 363 651 364 7 0 14 -6 17 -13z m7
-665 l0 -63 -82 -36 c-228 -101 -558 -281 -858 -470 l-165 -103 -3 97 c-2 72
0 100 10 106 7 4 144 78 303 163 542 289 774 401 787 380 4 -6 8 -39 8 -74z
m0 -251 c0 -55 3 -107 6 -116 6 -15 4 -15 -15 -4 -19 12 -30 9 -109 -34 -48
-26 -167 -88 -264 -137 -97 -49 -270 -147 -385 -218 -183 -114 -321 -192 -338
-192 -3 0 -5 49 -5 110 l0 109 73 34 c39 18 181 99 314 179 133 80 301 176
375 214 150 76 317 153 336 153 9 1 12 -25 12 -98z m2499 -9 c0 -31 -4 -76 -7
-100 l-7 -43 -128 -59 c-143 -65 -341 -174 -522 -287 -132 -84 -362 -239 -369
-252 -3 -4 1 -17 10 -29 13 -20 17 -20 53 -7 49 17 94 46 250 157 68 49 174
119 235 155 116 69 436 233 455 233 7 0 12 -27 13 -70 0 -38 1 -75 2 -81 1 -6
-118 -76 -264 -156 -331 -180 -528 -294 -655 -378 -55 -36 -102 -65 -106 -65
-8 0 -17 139 -22 342 -3 128 -2 137 13 123 37 -34 98 -8 190 80 114 109 395
292 621 406 115 57 220 99 232 92 4 -2 7 -30 6 -61z m-2492 -263 l3 -94 -118
-49 c-281 -118 -565 -269 -810 -433 -146 -98 -172 -127 -141 -158 12 -12 37 1
164 84 83 54 211 133 285 176 225 129 605 314 618 300 3 -2 7 -50 10 -106 5
-100 4 -101 -16 -95 -23 8 -332 -146 -831 -413 -145 -77 -267 -141 -270 -141
-3 0 -5 93 -4 207 l3 206 177 105 c347 205 560 324 698 392 77 37 156 79 175
93 19 14 40 25 45 23 6 -1 11 -45 12 -97z m2493 -303 c0 -60 -4 -78 -21 -100
-29 -37 -80 -67 -174 -104 -111 -42 -455 -205 -671 -318 -100 -52 -185 -94
-188 -94 -3 0 -6 29 -6 65 l0 65 30 0 c20 0 56 17 103 48 94 64 316 194 552
324 306 170 358 197 367 192 4 -3 8 -38 8 -78z m-2485 -250 c0 -98 -2 -116
-15 -113 -8 2 -55 -17 -105 -41 -222 -110 -843 -443 -947 -509 -21 -12 -42
-23 -48 -23 -6 0 -10 40 -10 104 l0 104 33 20 c17 10 73 44 122 74 219 134
937 512 960 504 6 -2 10 -51 10 -120z m2473 52 c13 -13 15 -80 4 -141 l-7 -39
-150 -68 c-82 -37 -260 -121 -395 -187 -311 -152 -550 -260 -550 -247 0 3 12
44 26 90 l27 85 91 50 c111 61 924 469 935 469 4 0 12 -5 19 -12z m-2478 -311
l0 -62 -47 -25 c-27 -14 -185 -108 -353 -209 -576 -347 -701 -421 -710 -421
-6 0 -10 32 -10 73 0 39 -3 89 -6 110 -6 36 -6 37 25 37 51 0 122 33 222 102
171 118 518 310 650 359 89 32 153 63 188 90 13 10 27 16 32 13 5 -3 9 -33 9
-67z m2474 -14 l-9 -48 -110 -58 c-393 -210 -953 -562 -1651 -1040 -517 -354
-755 -529 -824 -603 l-49 -55 -131 -6 c-71 -3 -130 -3 -130 0 0 7 237 193 445
348 212 160 508 370 730 518 109 74 217 153 240 176 22 23 58 48 80 55 71 23
136 61 186 107 46 43 99 130 99 163 0 11 16 19 56 28 67 14 280 108 659 290
388 187 399 192 409 181 6 -5 6 -27 0 -56z m26 -221 c0 -64 -19 -101 -63 -123
-145 -74 -477 -289 -892 -579 -336 -235 -495 -342 -690 -465 -77 -49 -246
-158 -375 -244 l-235 -156 -150 -5 c-82 -3 -152 -4 -154 -3 -21 14 273 223
1124 800 545 369 641 431 1021 652 l359 210 28 -30 c16 -17 27 -41 27 -57z
m-2488 -2 c0 -44 1 -85 2 -91 1 -6 -64 -41 -144 -78 -245 -114 -593 -308 -867
-482 -69 -43 -127 -79 -129 -79 -2 0 -4 36 -4 81 l0 80 58 26 c68 31 222 123
345 205 106 71 707 417 725 418 8 0 12 -23 14 -80z m17 -259 c0 -25 -3 -63 -7
-84 -7 -37 -10 -39 -97 -76 -49 -21 -155 -71 -234 -111 -129 -65 -227 -123
-674 -394 -71 -43 -131 -75 -135 -72 -3 4 -6 41 -7 84 l0 77 130 88 c213 144
485 303 750 439 278 142 276 141 274 49z m2431 52 c0 -5 -16 -60 -37 -123 -30
-94 -43 -121 -72 -150 -41 -39 -138 -101 -536 -340 -476 -286 -853 -547 -870
-601 -4 -13 -2 -27 6 -35 12 -11 58 16 289 172 400 269 1067 691 1077 680 2
-2 -15 -35 -37 -74 -22 -38 -52 -99 -66 -134 -31 -77 -37 -83 -61 -67 -17 10
-34 4 -124 -46 -133 -73 -302 -184 -554 -364 -192 -138 -237 -181 -186 -181
50 0 140 50 326 181 276 194 515 342 515 320 0 -14 -138 -177 -201 -237 -117
-112 -275 -224 -315 -224 -12 0 -62 -14 -111 -31 -79 -28 -106 -32 -268 -40
-99 -5 -191 -11 -205 -14 -40 -8 -591 -37 -597 -31 -3 2 218 153 490 335 272
181 600 405 728 498 336 243 489 344 699 460 96 53 110 59 110 46z m-2430
-304 c11 -21 27 -39 35 -39 8 0 15 -3 15 -7 0 -5 -91 -62 -202 -128 -225 -134
-581 -362 -791 -505 l-137 -95 5 -38 c4 -32 1 -42 -17 -57 -13 -11 -25 -19
-29 -20 -6 0 -29 224 -29 281 0 33 3 37 55 58 31 13 157 90 281 172 123 82
294 188 379 235 157 87 394 196 408 187 4 -2 16 -22 27 -44z m819 -43 c-2 -2
-78 -56 -169 -121 -91 -66 -329 -241 -530 -390 -201 -149 -406 -299 -456 -334
-51 -34 -122 -89 -159 -123 l-67 -62 -134 0 c-129 -1 -135 0 -132 19 2 11 17
27 35 36 17 8 161 113 320 231 439 328 573 421 721 500 111 59 151 87 211 146
l74 72 81 1 c45 0 104 7 131 14 51 13 82 18 74 11z m-406 -23 c7 -7 -21 -43
-34 -43 -4 0 -49 -29 -100 -64 -52 -35 -161 -105 -244 -156 -232 -143 -331
-214 -585 -416 -129 -103 -276 -218 -327 -256 l-92 -68 -74 0 -75 0 -4 51 c-3
45 0 52 19 60 12 4 41 20 63 35 40 27 43 34 26 75 -15 35 562 422 959 644 77
43 157 89 178 102 21 13 48 28 60 33 26 10 221 13 230 3z"/>
<path d="M22130 9150 c-102 -4 -213 -11 -247 -15 -54 -6 -62 -10 -67 -31 -4
-13 -14 -29 -24 -35 -16 -10 -17 -20 -9 -96 6 -54 3 -267 -6 -577 -8 -270 -12
-537 -10 -592 3 -67 1 -109 -7 -124 -7 -14 -8 -25 -2 -33 9 -11 13 -50 12
-122 0 -16 0 -190 0 -385 0 -195 -4 -524 -9 -731 -9 -378 -1 -1033 18 -1533 6
-138 11 -336 12 -441 2 -270 -19 -1222 -31 -1365 -7 -80 -7 -177 0 -283 5 -89
10 -286 10 -439 l0 -276 43 -20 c94 -45 521 -61 922 -35 195 13 239 20 282 49
l25 16 -7 677 c-4 372 -8 732 -9 801 -1 69 -7 141 -13 160 -21 65 -23 105 -8
164 12 47 13 65 4 91 -9 25 -10 145 -1 511 6 264 10 553 9 644 -4 322 -2 372
17 427 16 49 17 69 5 265 -6 116 -9 249 -6 295 5 73 3 90 -15 127 -20 42 -20
47 -7 147 11 83 13 172 6 439 -4 184 -7 349 -7 365 2 162 -3 341 -11 343 -9 4
-13 35 -4 44 3 2 7 295 11 649 4 562 7 648 21 675 15 30 15 32 -8 63 -19 26
-24 45 -24 92 0 65 -3 68 -95 89 -50 11 -484 11 -770 0z m619 -76 l34 -5 -34
-36 c-19 -19 -65 -55 -104 -80 -85 -55 -216 -159 -350 -279 -253 -226 -400
-344 -428 -344 -13 0 -17 5 -13 16 3 9 6 52 6 95 0 53 4 78 10 74 11 -7 38 15
290 239 140 125 315 269 368 304 41 27 114 32 221 16z m-375 -4 l51 -1 -60
-52 c-33 -29 -158 -139 -278 -246 -120 -106 -221 -191 -224 -188 -3 3 -6 48
-7 99 -1 86 0 92 19 93 11 0 72 43 135 96 252 209 253 210 284 204 16 -3 52
-5 80 -5z m545 -22 c4 -13 10 -46 13 -75 l5 -52 -86 -69 c-47 -38 -165 -127
-262 -199 -104 -77 -241 -191 -335 -280 -302 -283 -386 -356 -395 -341 -10 15
-11 102 -3 176 5 41 11 52 25 52 31 0 233 159 604 476 158 136 406 334 417
334 5 0 12 -10 17 -22z m-789 8 c0 -2 -57 -50 -126 -106 -97 -79 -128 -100
-135 -89 -12 20 -11 130 2 168 l11 31 124 0 c68 0 124 -2 124 -4z m814 -356
c1 -85 0 -90 -29 -120 -16 -17 -68 -55 -115 -83 -47 -28 -146 -97 -220 -153
-122 -92 -224 -175 -605 -489 l-120 -99 -3 119 c-1 65 0 120 3 123 3 3 11 0
17 -6 7 -7 18 -12 26 -12 32 0 158 105 347 290 194 189 310 285 595 486 69 49
87 58 94 46 4 -8 9 -54 10 -102z m-11 -242 c1 -18 0 -63 -1 -99 l-2 -67 -247
-185 c-251 -187 -279 -210 -510 -416 -127 -113 -257 -217 -300 -240 l-23 -12
0 117 c0 115 0 116 27 138 15 11 152 124 303 249 429 356 723 576 744 557 5
-5 9 -24 9 -42z m-2 -295 c7 -17 8 -55 4 -98 l-7 -70 -77 -60 c-42 -32 -233
-178 -426 -324 -192 -145 -399 -302 -458 -349 -60 -46 -109 -83 -111 -81 -2 2
-1 46 2 97 4 84 6 92 25 92 21 0 51 25 312 259 154 139 343 300 433 370 62 48
274 191 284 191 5 0 13 -12 19 -27z m-1 -380 l0 -108 -172 -125 c-287 -209
-513 -392 -693 -560 -60 -56 -194 -160 -206 -160 -8 0 -4 275 4 288 5 6 15 12
23 12 8 0 97 64 197 143 235 185 492 377 686 511 84 58 155 106 157 106 2 0 4
-48 4 -107z m-17 -320 c-2 -75 -3 -77 -45 -121 -24 -24 -102 -83 -174 -131
-138 -92 -234 -168 -604 -474 -154 -128 -227 -183 -232 -174 -4 6 -8 58 -8
115 l0 102 28 0 c44 0 119 51 232 155 313 292 767 642 794 615 6 -6 10 -44 9
-87z m23 -318 c-5 -24 -19 -38 -63 -65 -32 -19 -115 -77 -185 -127 -70 -51
-188 -136 -260 -189 -73 -52 -177 -135 -231 -182 -54 -48 -103 -89 -110 -91
-6 -2 -22 -18 -36 -34 -32 -38 -193 -157 -203 -151 -10 6 -9 75 0 127 5 25 16
43 34 55 15 9 144 114 288 232 319 262 454 365 630 482 l135 89 3 -58 c2 -32
1 -72 -2 -88z m59 14 c10 -14 1 -21 -19 -13 -9 3 -13 10 -10 15 7 12 21 11 29
-2z m-65 -236 l0 -118 -175 -120 c-96 -66 -188 -131 -203 -145 -16 -14 -62
-50 -102 -80 -40 -30 -80 -63 -89 -73 -23 -27 -162 -143 -346 -290 l-160 -129
-7 59 c-4 32 -5 87 -1 123 l5 65 76 60 c42 33 171 138 287 233 252 208 451
361 599 459 59 40 110 73 112 73 2 0 4 -53 4 -117z m0 -322 l0 -100 -82 -59
c-46 -32 -150 -105 -233 -162 -163 -114 -270 -197 -385 -302 -41 -38 -84 -71
-95 -74 -11 -3 -25 -15 -30 -27 -6 -12 -37 -40 -71 -62 -34 -22 -85 -61 -114
-87 -28 -27 -57 -48 -64 -48 -7 0 -11 34 -11 110 0 101 2 110 19 110 21 0 82
46 321 245 187 155 335 274 435 350 83 64 291 205 302 205 4 0 8 -45 8 -99z
m0 -273 c0 -46 -3 -93 -6 -106 -4 -15 -65 -64 -175 -142 -92 -66 -171 -120
-174 -120 -3 0 -30 -18 -60 -40 -30 -22 -58 -40 -63 -40 -5 0 -16 -7 -23 -16
-25 -30 -290 -224 -305 -224 -9 0 -18 -9 -21 -20 -3 -12 -18 -27 -34 -35 -15
-8 -54 -37 -86 -63 -70 -58 -118 -92 -130 -92 -4 0 -8 41 -7 91 l0 91 40 17
c58 27 183 120 329 245 140 121 282 236 410 333 105 79 286 203 297 203 4 0 8
-37 8 -82z m6 -244 c8 -31 -1 -91 -16 -109 -14 -17 -226 -181 -560 -435 -140
-107 -310 -238 -377 -292 -67 -54 -124 -98 -128 -98 -3 0 -5 47 -5 104 l0 104
29 10 c50 17 130 74 261 183 69 57 165 133 214 169 112 82 559 388 568 389 4
1 11 -10 14 -25z m9 -430 c0 -1 -49 -30 -110 -64 -60 -35 -123 -72 -138 -82
-15 -11 -42 -24 -60 -29 -28 -7 -62 -32 -118 -84 -9 -8 -21 -15 -27 -15 -9 0
-103 -70 -157 -118 -54 -47 -124 -99 -159 -117 -21 -11 -41 -25 -43 -32 -3 -7
-14 -13 -24 -13 -10 0 -19 -6 -19 -14 0 -8 -14 -19 -31 -25 -17 -6 -45 -26
-63 -46 -18 -19 -40 -35 -50 -35 -9 0 -33 -17 -52 -37 l-34 -38 1 60 c1 33 0
65 -2 72 -9 28 343 317 664 545 117 83 257 184 312 224 l100 72 5 -112 c3 -61
5 -112 5 -112z m-9 -191 c9 -114 11 -370 2 -378 -3 -3 -16 -1 -30 5 -20 10
-33 6 -88 -25 -36 -20 -76 -47 -90 -59 -14 -13 -41 -29 -60 -37 -19 -7 -51
-27 -70 -45 -19 -17 -61 -44 -92 -61 -82 -44 -396 -265 -403 -283 -3 -9 -20
-24 -37 -35 -18 -10 -62 -40 -98 -66 -36 -26 -74 -50 -86 -53 -20 -6 -21 -3
-20 71 l1 77 300 210 c572 401 745 526 745 540 0 22 -29 27 -63 11 -54 -26
-201 -116 -234 -145 -7 -5 -18 -10 -26 -10 -7 0 -60 -35 -118 -77 -245 -181
-455 -338 -504 -378 -29 -24 -63 -45 -76 -47 -23 -3 -24 -1 -27 73 l-3 77 103
73 c57 40 200 146 318 234 118 89 262 194 320 233 99 67 307 191 322 192 3 0
10 -44 14 -97z m-9 -683 c-3 -163 -9 -266 -16 -274 -6 -7 -34 -24 -63 -38 -29
-14 -88 -42 -130 -63 -43 -21 -78 -43 -78 -49 0 -6 -25 -22 -56 -36 -31 -13
-58 -29 -61 -36 -2 -6 -16 -14 -31 -18 -15 -3 -62 -36 -105 -74 -43 -37 -103
-83 -135 -102 -97 -58 -275 -177 -312 -209 -29 -26 -33 -32 -20 -41 37 -26
120 10 242 103 163 124 555 375 704 450 l51 26 6 -67 c7 -90 -11 -119 -113
-178 -43 -25 -88 -56 -100 -69 -12 -13 -28 -21 -35 -19 -17 7 -64 -18 -89 -45
-11 -12 -26 -21 -34 -21 -8 0 -30 -13 -49 -30 -18 -16 -40 -30 -47 -30 -8 0
-54 -29 -102 -64 -49 -34 -107 -72 -130 -84 -22 -11 -46 -28 -54 -37 -8 -9
-30 -25 -50 -35 -56 -29 -213 -127 -232 -145 -15 -15 -17 -14 -23 16 -4 18 -4
138 0 266 7 224 8 233 26 228 22 -7 124 52 434 250 105 67 240 150 300 185
102 59 213 129 260 165 19 15 19 15 -2 37 l-22 21 -83 -48 c-353 -204 -539
-317 -703 -426 -104 -70 -193 -125 -197 -122 -5 2 -8 34 -8 69 0 56 3 69 23
85 76 65 327 253 467 352 176 123 549 365 564 366 5 1 7 -107 3 -259z m-7
-749 l0 -88 -192 -109 c-105 -60 -239 -142 -297 -182 -57 -40 -123 -85 -145
-99 -23 -14 -117 -77 -211 -142 -156 -107 -170 -118 -170 -146 0 -25 4 -31 27
-33 39 -5 81 19 173 94 168 137 801 537 810 512 2 -7 5 -50 8 -95 l4 -82 -56
-40 c-81 -56 -135 -87 -436 -248 -395 -212 -461 -252 -511 -305 -49 -52 -55
-75 -23 -87 17 -6 42 7 123 62 55 37 160 103 231 146 167 100 674 365 682 357
4 -3 8 -89 11 -191 4 -174 4 -185 -14 -191 -62 -20 -129 -50 -166 -73 -24 -15
-78 -46 -120 -69 -62 -34 -347 -209 -648 -399 -54 -34 -66 -73 -27 -90 21 -10
52 7 313 173 398 254 653 399 671 380 14 -14 3 -166 -13 -192 -9 -13 -64 -49
-122 -80 -344 -184 -902 -545 -902 -584 0 -22 20 -40 45 -40 22 0 95 46 190
121 127 99 499 325 704 429 l98 49 6 -60 c10 -108 33 -90 -458 -361 -265 -147
-402 -234 -408 -259 -5 -17 -11 -20 -34 -15 -15 3 -69 8 -119 11 l-90 7 0 304
c1 199 5 304 11 304 6 0 27 11 47 25 59 40 613 375 718 435 52 29 137 80 188
113 89 57 92 60 78 81 -21 31 -65 25 -132 -21 -33 -22 -83 -52 -113 -67 -29
-15 -68 -42 -85 -61 -17 -18 -42 -35 -56 -38 -14 -4 -46 -19 -70 -35 -115 -74
-155 -97 -163 -94 -5 1 -17 -8 -28 -22 -11 -14 -35 -30 -54 -36 -19 -6 -37
-20 -40 -30 -6 -17 -32 -33 -46 -27 -3 1 -21 -12 -41 -29 -42 -37 -208 -128
-217 -119 -9 9 -8 253 3 511 9 216 9 221 30 217 14 -3 67 25 151 78 533 335
863 532 876 523 5 -3 9 -45 9 -93z m39 -1721 c0 -80 -2 -161 -5 -182 -6 -35
-7 -36 -35 -26 -19 7 -62 6 -130 -1 -56 -6 -104 -10 -106 -7 -2 2 40 34 93 72
105 74 144 117 144 156 0 44 -27 42 -83 -6 -58 -48 -194 -140 -303 -204 l-71
-42 -125 -2 c-175 -2 -182 6 -72 74 141 86 254 149 474 262 l205 105 6 -27 c4
-15 7 -92 8 -172z"/>
</g>
</svg>
