
        <svg xmlns="http://www.w3.org/2000/svg" xmlns:xlink="http://www.w3.org/1999/xlink" version="1.1" width="3300" height="1243.1615859031554" viewBox="0 0 3300 1243.1615859031554">
			
			<g transform="scale(15) translate(10, 10)">
				<defs id="SvgjsDefs2245"/><g id="SvgjsG2246" featureKey="PPkF4s-0" transform="matrix(3.5523979167009685,0,0,3.5523979167009685,0,-20.31971364429147)" fill="#fff"><path d="M1.9 19.96 l0 3.46 l-1.9 0 l0 -14.74 l2.96 0 c1.32 0 2.38 1.06 2.38 2.38 l0 6.52 c0 1.3 -1.06 2.38 -2.38 2.38 l-1.06 0 z M1.9 10.58 l0 7.48 l1.06 0 c0.28 0 0.48 -0.22 0.48 -0.48 l0 -6.52 c0 -0.26 -0.2 -0.48 -0.48 -0.48 l-1.06 0 z M8.98 8.68 c1.42 0 2.58 1.14 2.58 2.56 l0 8.74 l-1.9 0 l0 -8.74 c0 -0.36 -0.3 -0.68 -0.68 -0.68 l-0.74 0 l0 9.42 l-1.9 0 l0 -14.26 l1.9 0 l0 2.96 l0.74 0 z M15.159999999999998 19.96 c-1.44 0 -2.6 -1.18 -2.6 -2.62 l0 -6.24 c0 -1.32 1.08 -2.4 2.4 -2.4 l0.42 0 c1.32 0 2.4 1.08 2.4 2.4 l0 2.62 l-3.36 0.06 l0 3.56 c0 0.42 0.32 0.76 0.74 0.76 s0.76 -0.34 0.76 -0.76 l0 -1.24 l1.86 0 l0 1.24 c0 1.44 -1.18 2.62 -2.62 2.62 z M15.379999999999999 10.54 l-0.42 0 c-0.3 0 -0.54 0.26 -0.54 0.56 l0 0.84 l1.5 -0.04 l0 -0.8 c0 -0.3 -0.24 -0.56 -0.54 -0.56 z M21.179999999999996 8.68 c1.32 0 2.4 1.08 2.4 2.4 l0 9 l-1.92 0 l0 -9 c0 -0.26 -0.22 -0.48 -0.48 -0.48 s-0.48 0.22 -0.48 0.48 l0 9 l-1.92 0 l0 -11.76 l1.92 0 l0 0.42 c0.16 -0.04 0.32 -0.06 0.48 -0.06 z M27.099999999999998 20.02 c-1.5 0 -2.7 -1.22 -2.7 -2.7 l0 -5.94 c0 -1.48 1.2 -2.7 2.7 -2.7 c1.48 0 2.68 1.22 2.68 2.7 l0 5.94 c0 1.48 -1.2 2.7 -2.68 2.7 z M27.099999999999998 10.6 c-0.44 0 -0.78 0.36 -0.78 0.78 l0 5.94 c0 0.44 0.34 0.78 0.78 0.78 c0.42 0 0.78 -0.34 0.78 -0.78 l0 -5.94 c0 -0.42 -0.36 -0.78 -0.78 -0.78 z M35.959999999999994 8.68 c1.3 0 2.36 1.06 2.36 2.36 l0 8.9 l-1.88 0 l0 -8.9 c0 -0.26 -0.22 -0.46 -0.48 -0.46 s-0.46 0.2 -0.46 0.46 l0 8.9 l-1.9 0 l0 -8.9 c0 -0.26 -0.2 -0.46 -0.46 -0.46 s-0.48 0.2 -0.48 0.46 l0 9 l-1.88 0 l0 -11.74 l1.88 0 l0 0.44 c0.16 -0.04 0.32 -0.06 0.48 -0.06 c0.52 0 1.02 0.18 1.42 0.48 c0.38 -0.3 0.88 -0.48 1.4 -0.48 z M41.92 19.96 c-1.44 0 -2.6 -1.18 -2.6 -2.62 l0 -6.24 c0 -1.32 1.08 -2.4 2.4 -2.4 l0.42 0 c1.32 0 2.4 1.08 2.4 2.4 l0 2.62 l-3.36 0.06 l0 3.56 c0 0.42 0.32 0.76 0.74 0.76 s0.76 -0.34 0.76 -0.76 l0 -1.24 l1.86 0 l0 1.24 c0 1.44 -1.18 2.62 -2.62 2.62 z M42.14 10.54 l-0.42 0 c-0.3 0 -0.54 0.26 -0.54 0.56 l0 0.84 l1.5 -0.04 l0 -0.8 c0 -0.3 -0.24 -0.56 -0.54 -0.56 z M47.94 8.68 c1.32 0 2.4 1.08 2.4 2.4 l0 9 l-1.92 0 l0 -9 c0 -0.26 -0.22 -0.48 -0.48 -0.48 s-0.48 0.22 -0.48 0.48 l0 9 l-1.92 0 l0 -11.76 l1.92 0 l0 0.42 c0.16 -0.04 0.32 -0.06 0.48 -0.06 z M56.3 16.38 l0 3.6 l-1.84 0 l0 -0.06 c-0.18 0.04 -0.36 0.06 -0.56 0.06 c-1.4 0 -2.52 -1.12 -2.52 -2.52 l0 -2.14 c0 -0.56 0.22 -1.08 0.62 -1.48 c0.38 -0.38 0.9 -0.6 1.46 -0.6 l0.96 0 l0 -2.16 c0 -0.3 -0.26 -0.56 -0.56 -0.56 l-0.1 0 c-0.32 0 -0.56 0.26 -0.56 0.56 l0 1.52 l-1.86 0 l0 -1.52 c0 -1.34 1.08 -2.42 2.42 -2.42 l0.1 0 c1.34 0 2.42 1.08 2.42 2.42 z M53.9 18.12 c0.3 0 0.56 -0.24 0.56 -0.54 l-0.02 -2.46 l-0.98 -0.02 c-0.08 0 -0.12 0.04 -0.16 0.06 c-0.02 0.04 -0.06 0.08 -0.06 0.16 l0 2.14 c0 0.36 0.3 0.66 0.66 0.66 z"/></g>
			</g>
		</svg>
	